SplineFontDB: 3.0
FontName: Ocr-Pbi-Hovelbot
FullName: Untitled1
FamilyName: Ocr-Pbi
Weight: Regular
Copyright: Copyright (c) 2016, antoine
Version: 001.000
ItalicAngle: 0
UnderlinePosition: -100
UnderlineWidth: 50
Ascent: 800
Descent: 200
InvalidEm: 0
LayerCount: 2
Layer: 0 0 "Arri+AOgA-re" 1
Layer: 1 0 "Avant" 0
StyleMap: 0x0000
FSType: 0
OS2Version: 0
OS2_WeightWidthSlopeOnly: 0
OS2_UseTypoMetrics: 0
CreationTime: 1476315736
ModificationTime: 1476319236
OS2TypoAscent: 0
OS2TypoAOffset: 1
OS2TypoDescent: 0
OS2TypoDOffset: 1
OS2TypoLinegap: 90
OS2WinAscent: 0
OS2WinAOffset: 1
OS2WinDescent: 0
OS2WinDOffset: 1
HheadAscent: 0
HheadAOffset: 1
HheadDescent: 0
HheadDOffset: 1
DEI: 91125
Encoding: Custom
UnicodeInterp: none
NameList: AGL For New Fonts
DisplaySize: -96
AntiAlias: 1
FitToEm: 0
WinInfo: 52 13 6
BeginPrivate: 7
BlueValues 32 [11 16 529 534 696 700 751 751 ]
OtherBlues 12 [-200 -175 ]
StdHW 4 [47]
StemSnapH 18 [18 46 47 48 141 ]
StdVW 4 [47]
StemSnapV 5 [47 ]
BlueShift 2 21
EndPrivate
BeginChars: 260 141

StartChar: X
Encoding: 88 88 0
Width: 407
Flags: MW
HStem: 16 21G<87 87 320 320> 676 20G<91 91>
VStem: 63 280
LayerCount: 2
Fore
SplineSet
91 696 m 1
 114 672 l 1
 204 419 l 1
 293 667 l 1
 317 690 l 1
 340 667 l 1
 235 373 l 1
 344 39 l 1
 320 16 l 1
 297 39 l 1
 204 324 l 1
 111 39 l 1
 87 16 l 1
 63 39 l 1
 173 373 l 1
 67 672 l 1
 91 696 l 1
EndSplineSet
Validated: 1
EndChar

StartChar: R
Encoding: 82 82 1
Width: 407
Flags: HMW
LayerCount: 2
Fore
SplineSet
100 696 m 1
 185 696 l 2
 219 696 254 688 277 665 c 2
 301 642 l 2
 303 640 304 638 306 636 c 0
 335 601 329 553 329 509 c 0
 329 464 335 416 306 381 c 1
 301 376 l 1
 277 352 l 2
 265 340 250 332 234 328 c 1
 342 39 l 1
 318 16 l 1
 295 39 l 1
 189 322 l 1
 185 322 l 1
 124 322 l 1
 124 39 l 1
 100 16 l 1
 76 39 l 1
 76 672 l 1
 100 696 l 1
124 649 m 1
 124 369 l 1
 185 369 l 2
 213 369 242 374 264 389 c 1
 287 422 282 467 282 509 c 0
 282 550 287 595 264 629 c 1
 242 644 213 649 185 649 c 2
 124 649 l 1
EndSplineSet
EndChar

StartChar: equal
Encoding: 61 61 2
Width: 407
Flags: MW
HStem: 249 47<74 333 74 333> 482 47<74 333 74 333>
VStem: 50 306
LayerCount: 2
Fore
SplineSet
74 529 m 1
 333 529 l 1
 357 506 l 1
 333 482 l 1
 74 482 l 1
 50 506 l 1
 74 529 l 1
74 296 m 1
 333 296 l 1
 357 272 l 1
 333 249 l 1
 74 249 l 1
 50 272 l 1
 74 296 l 1
EndSplineSet
Validated: 1
EndChar

StartChar: six
Encoding: 54 54 3
Width: 407
Flags: MW
HStem: 11 47<191.5 216 191.5 219> 424 47<204 216> 731 20G<252 252>
VStem: 50 47 310 47<219 245>
LayerCount: 2
Fore
SplineSet
252 751 m 1
 275 728 l 1
 216 649 169 561 138 467 c 0
 135 458 133 449 130 440 c 1
 151 459 176 470 204 471 c 0
 234 471 262 458 283 436 c 2
 307 413 l 2
 314 405 321 397 327 387 c 0
 353 345 357 294 357 245 c 0
 357 193 353 141 327 97 c 0
 321 86 313 77 305 69 c 2
 282 45 l 2
 261 24 234 11 204 11 c 0
 174 11 147 25 126 46 c 2
 102 69 l 2
 94 77 87 87 80 97 c 0
 53 140 49 193 50 245 c 1
 43 282 48 320 62 355 c 1
 69 393 79 430 91 467 c 0
 122 561 169 649 228 728 c 1
 252 751 l 1
204 424 m 0
 178 423 155 413 135 398 c 0
 133 394 130 391 128 387 c 0
 120 377 114 366 109 355 c 0
 103 318 99 282 98 245 c 0
 96 193 101 140 128 97 c 0
 131 91 134 86 138 82 c 0
 157 67 179 58 204 58 c 0
 228 58 250 67 269 81 c 0
 273 86 276 91 280 97 c 0
 306 141 310 193 310 245 c 0
 309 294 306 345 280 387 c 0
 277 392 274 396 271 400 c 0
 251 415 228 424 204 424 c 0
EndSplineSet
Validated: 33
EndChar

StartChar: f
Encoding: 102 102 4
Width: 407
Flags: MW
HStem: 16 21G<204 204> 482 47<96 180 96 180 227 311> 731 20G<309 309>
VStem: 180 47<39 482 39 482 529 674>
LayerCount: 2
Fore
SplineSet
309 751 m 1
 333 728 l 1
 309 704 l 1
 227 674 l 1
 227 529 l 1
 311 529 l 1
 335 506 l 1
 311 482 l 1
 227 482 l 1
 227 39 l 1
 204 16 l 1
 180 39 l 1
 180 482 l 1
 96 482 l 1
 73 506 l 1
 96 529 l 1
 180 529 l 1
 180 689 l 1
 204 712 l 1
 309 751 l 1
EndSplineSet
Validated: 1
EndChar

StartChar: M
Encoding: 77 77 5
Width: 407
Flags: MW
HStem: 16 21G<74 74 333 333> 676 20G<74 74 120 120 287 287 333 333>
VStem: 50 47<39 673 672 673> 310 47<39 668 668 668 39 673>
LayerCount: 2
Fore
SplineSet
74 696 m 1
 97 673 l 1
 120 696 l 1
 144 672 l 1
 204 356 l 1
 263 672 l 1
 287 696 l 1
 310 673 l 1
 333 696 l 1
 357 672 l 1
 357 39 l 1
 333 16 l 1
 310 39 l 1
 310 668 l 1
 233 261 l 1
 209 237 l 1
 198 237 l 1
 174 261 l 1
 98 668 l 1
 98 39 l 1
 74 16 l 1
 50 39 l 1
 50 672 l 1
 74 696 l 1
EndSplineSet
Validated: 1
EndChar

StartChar: g
Encoding: 103 103 7
Width: 407
Flags: MW
HStem: 23 47<192.5 215 192.5 218> 487 47<192.5 215>
VStem: 50 47 310 47<78 89 89 89 250 278 278 306.5 467 494>
LayerCount: 2
Fore
SplineSet
204 534 m 0
 232 534 257 521 277 501 c 2
 300 478 l 2
 304 474 307 471 310 467 c 2
 310 494 l 1
 333 518 l 1
 357 494 l 1
 357 278 l 1
 357 78 l 2
 357 6 346 -71 301 -116 c 2
 277 -139 l 2
 265 -151 251 -161 233 -168 c 0
 190 -184 142 -173 111 -141 c 2
 88 -118 l 2
 81 -111 75 -103 70 -95 c 1
 93 -71 l 1
 117 -95 l 2
 119 -98 121 -102 124 -105 c 0
 154 -128 196 -135 233 -121 c 0
 245 -116 256 -110 265 -103 c 0
 300 -57 310 12 310 78 c 2
 310 89 l 2
 307 86 304 82 300 79 c 2
 277 56 l 2
 257 36 232 23 204 23 c 0
 175 23 150 36 131 56 c 2
 107 79 l 2
 97 89 88 102 80 115 c 0
 53 164 50 222 50 278 c 0
 50 335 53 392 80 442 c 0
 88 455 97 467 107 478 c 2
 131 501 l 2
 150 521 175 534 204 534 c 0
204 487 m 0
 181 487 160 478 143 465 c 0
 137 458 132 450 128 442 c 0
 101 392 98 335 98 278 c 0
 98 222 101 164 128 115 c 0
 132 107 137 99 143 92 c 0
 160 78 181 70 204 70 c 0
 226 70 247 78 264 92 c 0
 270 99 275 107 280 115 c 0
 307 164 310 222 310 278 c 0
 310 335 307 392 280 442 c 0
 275 450 270 458 264 465 c 0
 247 478 226 487 204 487 c 0
EndSplineSet
Validated: 33
EndChar

StartChar: F
Encoding: 70 70 8
Width: 407
Flags: MW
HStem: 16 21G<104 104> 350 47<127 285 127 285> 649 47<127 315 127 127>
VStem: 80 47<39 350 39 373 397 649>
LayerCount: 2
Fore
SplineSet
104 696 m 1
 315 696 l 1
 338 672 l 1
 315 649 l 1
 127 649 l 1
 127 397 l 1
 285 397 l 1
 309 373 l 1
 285 350 l 1
 127 350 l 1
 127 39 l 1
 104 16 l 1
 80 39 l 1
 80 373 l 1
 80 672 l 1
 104 696 l 1
EndSplineSet
Validated: 1
EndChar

StartChar: cedilla
Encoding: 184 184 9
Width: 407
Flags: W
HStem: -88 19<193.5 195 195 201 184 212>
VStem: 195 17<-88 -88 -14 26 26 43> 195 46
LayerCount: 2
Fore
SplineSet
195 43 m 1xc0
 212 43 l 1
 212 -14 l 1xc0
 214 -14 l 2
 229 -14 241 -26 242 -41 c 2
 242 -42 l 1
 242 -58 l 2
 242 -75 228 -88 212 -88 c 2
 195 -88 l 2
 192 -88 188 -87 184 -86 c 1
 184 -69 l 1
 201 -69 l 2
 202 -70 203 -70 204 -70 c 0
 213 -67 221 -60 224 -50 c 1
 220 -39 210 -31 198 -30 c 2
 195 -30 l 1xa0
 195 -14 l 1
 195 26 l 1
 195 43 l 1xc0
EndSplineSet
Validated: 1
EndChar

StartChar: acute
Encoding: 180 180 10
Width: 407
Flags: MW
HStem: 610 142
VStem: 162 93
LayerCount: 2
Fore
SplineSet
231 751 m 1
 255 728 l 1
 209 633 l 1
 185 610 l 1
 162 633 l 1
 208 728 l 1
 231 751 l 1
EndSplineSet
Validated: 1
EndChar

StartChar: s
Encoding: 115 115 11
Width: 407
Flags: W
HStem: 11 47<204 204> 487 47<201 204 201 204>
VStem: 87 47<105 105> 258 47<434 441> 280 47<143.5 169>
LayerCount: 2
Fore
SplineSet
201 534 m 0xe8
 202 534 203 534 204 534 c 0
 225 533 244 525 258 510 c 2
 282 487 l 2
 296 473 305 454 305 434 c 1
 282 410 l 1
 258 434 l 1xf0
 258 448 253 462 245 474 c 1
 233 482 219 486 204 487 c 0
 184 487 166 480 151 469 c 1
 128 439 121 399 135 363 c 0
 139 352 145 342 152 333 c 0
 168 320 186 309 204 298 c 0
 228 284 253 269 272 250 c 2
 296 226 l 2
 314 207 327 185 327 158 c 0
 327 127 318 96 298 71 c 0
 296 69 293 66 291 64 c 2
 267 40 l 2
 250 23 228 12 204 11 c 0
 177 10 153 20 135 37 c 2
 112 61 l 2
 100 73 91 88 87 105 c 1
 111 128 l 1
 134 105 l 1
 137 93 142 83 148 74 c 1
 164 63 183 57 204 58 c 0
 222 59 240 65 255 76 c 1
 272 100 280 129 280 158 c 0
 280 180 272 198 259 214 c 1
 242 228 223 240 204 251 c 0
 181 264 158 279 139 297 c 2
 116 321 l 2
 104 333 94 346 88 363 c 0
 73 400 82 442 107 473 c 0
 109 476 112 479 115 482 c 2
 138 506 l 2
 155 523 177 534 201 534 c 0xe8
EndSplineSet
Validated: 33
EndChar

StartChar: n
Encoding: 110 110 12
Width: 407
Flags: MW
HStem: 16 21G<83 83 324 324> 509 20G<83 83>
VStem: 60 47<39 300 470 506> 300 47<39 300 39 325.5>
LayerCount: 2
Fore
SplineSet
210 534 m 0
 213 534 216 534 218 534 c 0
 240 532 260 521 275 505 c 2
 299 482 l 2
 308 472 317 461 323 448 c 0
 347 403 347 351 347 300 c 2
 347 39 l 1
 324 16 l 1
 300 39 l 1
 300 300 l 2
 300 351 300 403 276 448 c 0
 272 455 268 462 263 469 c 0
 250 479 235 485 218 487 c 0
 193 489 170 481 150 465 c 0
 146 460 142 454 138 448 c 0
 112 404 107 351 107 300 c 2
 107 39 l 1
 83 16 l 1
 60 39 l 1
 60 300 l 1
 60 506 l 1
 83 529 l 1
 107 506 l 1
 107 470 l 2
 109 473 112 476 114 478 c 2
 138 502 l 2
 157 522 182 534 210 534 c 0
EndSplineSet
Validated: 33
EndChar

StartChar: D
Encoding: 68 68 13
Width: 407
Flags: MW
HStem: 676 20G<104 115 115 126 124 126>
VStem: 80 47<63 648 63 672 63 672> 297 47<317 394.5>
LayerCount: 2
Fore
SplineSet
115 696 m 0
 118 696 122 696 126 696 c 0
 172 693 213 672 245 640 c 2
 269 616 l 2
 280 605 290 592 299 578 c 0
 340 513 344 433 344 356 c 0
 344 278 340 198 299 133 c 0
 290 119 280 106 269 95 c 2
 245 72 l 2
 213 40 172 19 126 16 c 0
 118 15 111 15 104 16 c 1
 80 39 l 1
 80 672 l 1
 104 696 l 2
 107 696 111 696 115 696 c 0
127 648 m 1
 127 63 l 1
 167 66 203 82 233 107 c 0
 240 115 246 124 252 133 c 0
 293 198 297 278 297 356 c 0
 297 433 293 513 252 578 c 0
 246 587 240 596 233 604 c 0
 203 629 167 646 127 648 c 1
EndSplineSet
Validated: 1
EndChar

StartChar: E
Encoding: 69 69 14
Width: 407
Flags: MW
HStem: 16 47<127 326 127 326 104 326> 350 47<127 294 127 294> 649 47<127 326 127 127>
VStem: 80 47<63 350 63 373 397 649>
LayerCount: 2
Fore
SplineSet
104 696 m 1
 326 696 l 1
 349 672 l 1
 326 649 l 1
 127 649 l 1
 127 397 l 1
 294 397 l 1
 318 373 l 1
 294 350 l 1
 127 350 l 1
 127 63 l 1
 326 63 l 1
 349 39 l 1
 326 16 l 1
 104 16 l 1
 80 39 l 1
 80 373 l 1
 80 672 l 1
 104 696 l 1
EndSplineSet
Validated: 1
EndChar

StartChar: p
Encoding: 112 112 15
Width: 407
Flags: W
HStem: 16 47<191 213 191 216> 489 47<191 213> 511 20G<74 74>
VStem: 50 47<-176 83 247.5 276 276 304.5 468 508> 308 47
LayerCount: 2
Fore
SplineSet
202 536 m 0xd8
 230 536 254 523 274 504 c 2
 297 480 l 2
 308 469 317 456 325 442 c 0
 352 392 354 333 354 276 c 0
 354 219 352 160 325 109 c 0
 317 95 308 82 297 72 c 2
 274 48 l 2
 254 29 230 16 202 16 c 0
 175 16 150 29 131 48 c 2
 108 72 l 2
 104 75 100 79 97 83 c 2
 97 -176 l 1
 74 -200 l 1
 50 -176 l 1
 50 276 l 1
 50 508 l 1
 74 531 l 1xb8
 97 508 l 1
 97 468 l 2
 100 472 104 476 108 480 c 2
 131 504 l 2
 150 523 175 536 202 536 c 0xd8
202 489 m 0
 180 489 160 481 143 467 c 0
 137 460 131 451 127 442 c 0
 100 392 97 333 97 276 c 0
 97 219 100 160 127 109 c 0
 131 101 137 92 143 84 c 0
 160 71 180 63 202 63 c 0
 224 63 244 71 261 84 c 0
 268 92 273 101 278 109 c 0
 305 160 308 219 308 276 c 0
 308 333 305 392 278 442 c 0
 273 451 268 460 261 467 c 0
 244 481 224 489 202 489 c 0
EndSplineSet
Validated: 1
EndChar

StartChar: Y
Encoding: 89 89 16
Width: 407
Flags: MW
HStem: 16 21G<204 204> 676 20G<89 89 318 318>
VStem: 180 47<39 345 39 345>
LayerCount: 2
Fore
SplineSet
89 696 m 1
 112 672 l 1
 204 412 l 1
 295 672 l 1
 318 696 l 1
 342 672 l 1
 227 345 l 1
 227 39 l 1
 204 16 l 1
 180 39 l 1
 180 345 l 1
 65 672 l 1
 89 696 l 1
EndSplineSet
Validated: 1
EndChar

StartChar: underscore
Encoding: 95 95 17
Width: 407
Flags: MW
HStem: -18 47<74 333 74 333>
VStem: 50 306
LayerCount: 2
Fore
SplineSet
74 29 m 1
 333 29 l 1
 357 6 l 1
 333 -18 l 1
 74 -18 l 1
 50 6 l 1
 74 29 l 1
EndSplineSet
Validated: 1
EndChar

StartChar: V
Encoding: 86 86 18
Width: 407
Flags: MW
HStem: 16 21G<180 180 228 228> 676 20G<74 74 333 333>
VStem: 50 306
LayerCount: 2
Fore
SplineSet
74 696 m 1
 98 672 l 1
 203 39 l 1
 180 16 l 1
 156 39 l 1
 50 672 l 1
 74 696 l 1
333 696 m 1
 357 672 l 1
 251 39 l 1
 228 16 l 1
 204 39 l 1
 310 672 l 1
 333 696 l 1
EndSplineSet
Validated: 1
EndChar

StartChar: parenright
Encoding: 41 41 19
Width: 407
Flags: MW
HStem: 16 21G<120 120> 731 20G<120 120>
VStem: 217 47<342 424.5>
LayerCount: 2
Fore
SplineSet
120 751 m 1
 137 741 153 729 167 715 c 2
 190 692 l 2
 209 673 225 650 236 626 c 0
 271 551 264 466 264 383 c 0
 264 301 271 216 236 141 c 0
 225 116 209 94 190 75 c 2
 167 51 l 2
 153 38 137 26 120 16 c 1
 97 39 l 1
 120 63 l 2
 132 70 144 78 154 87 c 0
 168 103 180 121 189 141 c 0
 224 216 217 301 217 383 c 0
 217 466 224 551 189 626 c 0
 180 645 168 663 154 680 c 0
 144 689 132 697 120 704 c 2
 97 728 l 1
 120 751 l 1
EndSplineSet
Validated: 33
EndChar

StartChar: percent
Encoding: 37 37 20
Width: 407
Flags: W
HStem: 11 47<285 289 285 291.5> 16 21G<74 74> 193 47<285 289> 526 47 709 47<118 122> 731 20G<333 333>
VStem: 50 47 143 47<630 652> 217 47<115 137> 310 47<115 137>
LayerCount: 2
Fore
SplineSet
96 745 m 2
 103 752 111 756 120 756 c 0x3bc0
 130 756 138 752 145 745 c 2
 168 721 l 2
 173 717 177 711 179 705 c 0
 189 686 190 663 190 641 c 0
 190 619 189 597 179 577 c 0
 177 571 173 566 168 561 c 2
 145 537 l 2
 138 531 130 526 120 526 c 0
 111 526 103 531 96 537 c 2
 72 561 l 2
 68 566 64 571 61 577 c 0
 51 597 50 619 50 641 c 0
 50 663 51 686 61 705 c 0
 64 711 68 717 72 721 c 2
 96 745 l 2
333 751 m 1x77c0
 357 728 l 1
 98 39 l 1
 74 16 l 1
 50 39 l 1
 310 728 l 1
 333 751 l 1x77c0
132 707 m 0
 128 708 124 709 120 709 c 0x3bc0
 116 709 112 708 109 707 c 0
 109 706 108 706 108 705 c 0
 99 686 98 663 98 641 c 0
 98 619 99 597 108 577 c 1
 108 577 109 576 109 576 c 2
 112 574 116 574 120 574 c 0
 124 574 128 574 132 576 c 1
 132 576 132 577 132 577 c 1
 142 597 143 619 143 641 c 0
 143 663 142 686 132 705 c 0
 132 706 132 706 132 707 c 0
262 229 m 2
 269 236 277 240 287 240 c 0
 296 240 305 236 311 229 c 2
 335 206 l 2
 339 201 343 196 346 190 c 0
 356 170 357 148 357 126 c 0
 357 104 356 81 346 61 c 0
 343 55 339 50 335 45 c 2
 311 22 l 2
 305 15 296 11 287 11 c 0xb3c0
 277 11 269 15 262 22 c 2
 239 45 l 2
 234 50 231 55 228 61 c 0
 218 81 217 104 217 126 c 0
 217 148 218 170 228 190 c 0
 231 196 234 201 239 206 c 2
 262 229 l 2
298 191 m 0
 295 192 291 193 287 193 c 0
 283 193 279 192 276 191 c 0
 275 191 275 190 275 190 c 1
 265 170 264 148 264 126 c 0
 264 104 265 81 275 61 c 1
 275 61 275 61 276 60 c 0
 279 59 283 58 287 58 c 0
 291 58 295 59 298 60 c 0
 299 61 299 61 299 61 c 1
 309 81 310 104 310 126 c 0
 310 148 309 170 299 190 c 1
 299 190 299 191 298 191 c 0
EndSplineSet
Validated: 1
EndChar

StartChar: t
Encoding: 116 116 21
Width: 407
Flags: MW
HStem: 16 47<190 296 190 296 167 296> 482 47<83 143 83 143 190 294> 731 20G<167 167>
VStem: 143 47<63 482 63 482 63 482 529 728>
LayerCount: 2
Fore
SplineSet
167 751 m 1
 190 728 l 1
 190 529 l 1
 294 529 l 1
 318 506 l 1
 294 482 l 1
 190 482 l 1
 190 63 l 1
 296 63 l 1
 320 39 l 1
 296 16 l 1
 167 16 l 1
 143 39 l 1
 143 482 l 1
 83 482 l 1
 60 506 l 1
 83 529 l 1
 143 529 l 1
 143 728 l 1
 167 751 l 1
EndSplineSet
Validated: 1
EndChar

StartChar: y
Encoding: 121 121 22
Width: 407
Flags: MW
HStem: 509 20G<74 74 331 331>
VStem: 50 304
LayerCount: 2
Fore
SplineSet
74 529 m 1
 98 506 l 1
 201 212 l 1
 308 506 l 1
 331 529 l 1
 355 506 l 1
 224 146 l 1
 136 -94 l 1
 113 -118 l 1
 74 -129 l 1
 50 -105 l 1
 74 -82 l 1
 96 -75 l 1
 177 146 l 1
 50 506 l 1
 74 529 l 1
EndSplineSet
Validated: 1
EndChar

StartChar: c
Encoding: 99 99 23
Width: 407
Flags: MW
HStem: 11 47<194 204> 487 47<204 206 206 214>
VStem: 60 47<243.5 301>
LayerCount: 2
Fore
SplineSet
206 534 m 0
 231 534 252 523 270 505 c 2
 293 482 l 2
 314 461 328 432 337 401 c 1
 313 377 l 1
 290 401 l 1
 283 426 272 450 257 469 c 1
 242 480 224 487 204 487 c 0
 184 486 167 479 152 468 c 0
 146 460 140 450 135 440 c 0
 109 388 107 330 107 272 c 0
 107 215 109 156 135 105 c 0
 140 95 146 85 152 76 c 0
 167 65 184 58 204 58 c 0
 224 58 242 64 257 76 c 1
 272 95 283 119 290 144 c 1
 313 168 l 1
 337 144 l 1
 328 113 314 83 293 63 c 2
 270 39 l 2
 252 22 230 10 204 11 c 0
 179 11 157 23 140 40 c 2
 116 64 l 2
 105 75 95 90 88 105 c 0
 62 156 60 215 60 272 c 0
 60 330 62 388 88 440 c 0
 95 455 105 469 116 481 c 2
 140 505 l 2
 157 522 179 534 204 534 c 2
 204 534 205 534 206 534 c 0
EndSplineSet
Validated: 33
EndChar

StartChar: exclam
Encoding: 33 33 24
Width: 407
Flags: W
HStem: 16 21G<194 213 194 194> 676 20G<204 204>
VStem: 171 66 180 47<245 672 245 672>
LayerCount: 2
Fore
SplineSet
204 696 m 1xd0
 227 672 l 1
 227 245 l 1
 204 221 l 1
 180 245 l 1
 180 672 l 1
 204 696 l 1xd0
194 102 m 1
 213 102 l 1
 236 78 l 1
 236 39 l 1
 213 16 l 1
 194 16 l 1
 171 39 l 1
 171 78 l 1xe0
 194 102 l 1
EndSplineSet
Validated: 1
EndChar

StartChar: question
Encoding: 63 63 25
Width: 407
Flags: W
HStem: 16 21G<194 213 194 194> 653 47<204 204>
VStem: 78 47<536 555.5 536 559> 171 66 180 47<245 272>
LayerCount: 2
Fore
SplineSet
199 701 m 0xe8
 201 701 202 701 204 700 c 0
 225 699 244 689 259 673 c 2
 283 650 l 2
 290 642 297 634 303 625 c 0
 327 586 338 539 329 494 c 0
 313 413 236 355 227 272 c 0
 226 263 226 254 227 245 c 1
 204 221 l 1
 180 245 l 1
 179 254 179 263 180 272 c 0
 188 355 265 413 282 494 c 0
 291 539 280 586 256 625 c 0
 253 629 250 633 247 637 c 0
 234 646 220 653 204 653 c 0
 185 654 169 649 155 640 c 1
 136 613 125 575 125 536 c 1
 102 513 l 1
 78 536 l 1
 78 582 93 626 119 653 c 2
 143 676 l 2
 158 691 177 700 199 701 c 0xe8
194 102 m 1
 213 102 l 1
 236 78 l 1
 236 39 l 1
 213 16 l 1
 194 16 l 1
 171 39 l 1
 171 78 l 1xf0
 194 102 l 1
EndSplineSet
Validated: 33
EndChar

StartChar: I
Encoding: 73 73 26
Width: 407
Flags: MW
HStem: 16 47<111 180 111 204 111 180 227 296> 649 47<124 180 124 204 227 283 227 227>
VStem: 180 47<63 649 63 649>
LayerCount: 2
Fore
SplineSet
124 696 m 1
 204 696 l 1
 283 696 l 1
 307 672 l 1
 283 649 l 1
 227 649 l 1
 227 63 l 1
 296 63 l 1
 320 39 l 1
 296 16 l 1
 204 16 l 1
 111 16 l 1
 88 39 l 1
 111 63 l 1
 180 63 l 1
 180 649 l 1
 124 649 l 1
 100 672 l 1
 124 696 l 1
EndSplineSet
Validated: 1
EndChar

StartChar: H
Encoding: 72 72 27
Width: 407
Flags: MW
HStem: 16 21G<93 93 315 315> 350 47<116 291 116 291> 676 20G<93 93 315 315>
VStem: 69 47<39 350 39 373 397 672> 291 47<39 350 350 350 397 672>
LayerCount: 2
Fore
SplineSet
93 696 m 1
 116 672 l 1
 116 397 l 1
 291 397 l 1
 291 672 l 1
 315 696 l 1
 338 672 l 1
 338 373 l 1
 338 39 l 1
 315 16 l 1
 291 39 l 1
 291 350 l 1
 116 350 l 1
 116 39 l 1
 93 16 l 1
 69 39 l 1
 69 373 l 1
 69 672 l 1
 93 696 l 1
EndSplineSet
Validated: 1
EndChar

StartChar: one
Encoding: 49 49 28
Width: 407
Flags: MW
HStem: 16 21G<231 231> 731 20G<185 185 231 231>
VStem: 208 47<39 726 726 726 39 728>
LayerCount: 2
Fore
SplineSet
185 751 m 1
 208 728 l 1
 231 751 l 1
 255 728 l 1
 255 39 l 1
 231 16 l 1
 208 39 l 1
 208 726 l 1
 118 572 l 1
 94 549 l 1
 71 572 l 1
 162 728 l 1
 185 751 l 1
EndSplineSet
Validated: 1
EndChar

StartChar: braceleft
Encoding: 123 123 29
Width: 407
Flags: MW
HStem: 16 47<278 333 278 333> 360 47<74 87> 704 47<270.5 333 278 333>
VStem: 50 306
LayerCount: 2
Fore
SplineSet
278 751 m 2
 333 751 l 1
 357 728 l 1
 333 704 l 1
 278 704 l 2
 263 704 250 699 238 692 c 0
 234 686 230 679 227 672 c 0
 193 594 245 494 190 425 c 0
 188 422 185 419 182 416 c 2
 159 393 l 2
 156 389 152 386 148 384 c 1
 152 381 155 378 158 375 c 2
 182 351 l 2
 185 348 188 345 190 342 c 0
 235 283 200 203 218 134 c 0
 223 115 232 97 243 83 c 0
 254 74 265 68 278 63 c 1
 333 63 l 1
 357 39 l 1
 333 16 l 1
 278 16 l 1
 260 23 244 33 231 47 c 2
 207 70 l 2
 190 87 177 109 171 134 c 0
 153 201 187 280 145 339 c 1
 125 353 100 360 74 360 c 1
 50 383 l 1
 74 407 l 1
 100 407 126 414 146 429 c 1
 196 498 147 595 180 672 c 0
 185 684 193 696 202 705 c 2
 225 728 l 2
 239 742 257 751 278 751 c 2
EndSplineSet
Validated: 33
EndChar

StartChar: parenleft
Encoding: 40 40 30
Width: 407
Flags: MW
HStem: 16 21G<287 287> 731 20G<287 287>
VStem: 143 47<342 424.5>
LayerCount: 2
Fore
SplineSet
287 751 m 1
 310 728 l 1
 287 704 l 2
 275 697 263 689 253 680 c 0
 239 663 227 645 218 626 c 0
 183 551 190 466 190 383 c 0
 190 301 183 216 218 141 c 0
 227 121 239 103 253 87 c 0
 263 78 275 70 287 63 c 2
 310 39 l 1
 287 16 l 1
 270 26 254 38 241 51 c 2
 217 75 l 2
 198 94 182 116 171 141 c 0
 136 216 143 301 143 383 c 0
 143 466 136 551 171 626 c 0
 182 650 198 673 217 692 c 2
 241 715 l 2
 254 729 270 741 287 751 c 1
EndSplineSet
Validated: 33
EndChar

StartChar: e
Encoding: 101 101 31
Width: 407
Flags: MW
HStem: 11 47<204 214 204 217> 277 47<98 291 98 315 98 291> 489 47<192.5 206.5>
VStem: 50 47 291 47<300 344>
LayerCount: 2
Fore
SplineSet
195 536 m 0
 223 536 250 523 270 503 c 2
 293 479 l 2
 305 468 314 455 321 440 c 0
 341 397 338 348 338 300 c 1
 315 277 l 1
 98 277 l 2
 98 275 98 274 98 272 c 0
 99 215 101 156 128 105 c 0
 132 96 138 87 144 79 c 0
 161 65 181 57 204 58 c 0
 224 58 242 65 258 77 c 1
 272 96 283 120 290 144 c 1
 313 168 l 1
 337 144 l 1
 329 114 314 85 293 64 c 2
 270 41 l 2
 252 23 230 11 204 11 c 0
 176 10 151 23 132 42 c 2
 109 66 l 2
 97 77 88 90 80 105 c 0
 54 156 51 215 50 272 c 0
 49 330 50 388 74 440 c 0
 82 456 92 470 104 482 c 2
 127 506 l 2
 141 520 158 530 178 534 c 0
 184 535 190 536 195 536 c 0
195 489 m 0
 190 489 184 488 178 487 c 0
 163 484 151 478 139 469 c 0
 133 460 127 450 122 440 c 0
 104 404 99 364 98 324 c 1
 291 324 l 1
 291 364 290 404 274 440 c 0
 269 449 264 458 257 467 c 0
 239 480 218 489 195 489 c 0
EndSplineSet
Validated: 33
EndChar

StartChar: u
Encoding: 117 117 32
Width: 407
Flags: MW
HStem: 16 21G 509 20G<83 83 324 324>
VStem: 60 47<272 506> 300 47<39 73 73 73 233 506>
LayerCount: 2
Fore
SplineSet
83 529 m 1
 107 506 l 1
 107 272 l 2
 107 215 107 157 130 105 c 0
 135 94 141 83 149 74 c 0
 159 66 172 60 185 58 c 0
 212 53 237 62 258 78 c 0
 262 83 265 88 268 93 c 0
 294 135 300 185 300 233 c 2
 300 506 l 1
 324 529 l 1
 347 506 l 1
 347 233 l 1
 347 39 l 1
 324 16 l 1
 300 39 l 1
 300 73 l 2
 298 70 296 68 294 66 c 2
 270 42 l 2
 247 19 217 5 185 11 c 0
 166 14 150 24 136 37 c 2
 113 61 l 2
 100 73 91 88 83 105 c 0
 60 157 60 215 60 272 c 2
 60 506 l 1
 83 529 l 1
EndSplineSet
Validated: 33
EndChar

StartChar: guillemotleft
Encoding: 171 171 33
Width: 407
Flags: MW
HStem: 11 21G<204 204 278 278>
VStem: 50 251<34 233>
LayerCount: 2
Fore
SplineSet
204 456 m 1
 227 432 l 1
 98 233 l 1
 227 34 l 1
 204 11 l 1
 180 34 l 1
 50 233 l 1
 180 432 l 1
 204 456 l 1
278 456 m 1
 301 432 l 1
 172 233 l 1
 301 34 l 1
 278 11 l 1
 254 34 l 1
 125 233 l 1
 254 432 l 1
 278 456 l 1
EndSplineSet
Validated: 1
EndChar

StartChar: nine
Encoding: 57 57 34
Width: 407
Flags: MW
HStem: 16 21G<155 155> 313 47<204 217> 709 47<191.5 216>
VStem: 50 47 310 47<522 522>
LayerCount: 2
Fore
SplineSet
204 756 m 0
 234 756 261 742 282 721 c 2
 305 698 l 2
 313 689 321 680 327 670 c 0
 354 626 359 574 357 522 c 1
 364 486 359 449 343 417 c 1
 334 377 322 338 309 300 c 0
 276 208 232 121 179 39 c 1
 155 16 l 1
 132 39 l 1
 185 121 229 208 261 300 c 0
 266 313 270 326 274 338 c 1
 254 323 230 313 204 313 c 0
 172 312 142 326 120 348 c 2
 97 371 l 2
 91 377 85 384 80 391 c 0
 55 429 51 476 50 522 c 0
 50 574 54 626 80 670 c 0
 87 680 94 690 102 698 c 2
 126 722 l 2
 147 743 174 756 204 756 c 0
204 709 m 0
 179 709 157 700 138 685 c 0
 134 681 131 675 128 670 c 0
 101 626 97 574 98 522 c 0
 98 476 102 429 128 391 c 0
 129 389 131 386 133 384 c 0
 153 368 178 359 204 360 c 0
 231 360 256 370 276 387 c 0
 278 388 279 390 280 391 c 0
 286 399 291 408 295 417 c 0
 303 452 308 487 310 522 c 0
 312 574 307 626 280 670 c 0
 277 675 273 680 269 685 c 0
 250 700 228 709 204 709 c 0
EndSplineSet
Validated: 33
EndChar

StartChar: S
Encoding: 83 83 35
Width: 407
Flags: HW
HStem: 653 47<204 204>
VStem: 70 47<129 129> 271 47<607 607> 287 47
LayerCount: 2
Back
SplineSet
213 701 m 4xd0
 236 701 256 692 272 677 c 6
 295 654 l 6
 307 641 316 625 318 607 c 5
 295 583 l 5
 271 607 l 5xe0
 270 619 265 631 259 641 c 5
 243 651 224 656 204 653 c 4
 188 651 174 645 162 636 c 4
 160 634 159 631 157 629 c 4
 128 586 122 533 138 484 c 4
 150 450 172 422 196 396 c 4
 199 394 201 392 204 389 c 4
 211 382 219 374 227 367 c 6
 251 343 l 6
 295 299 335 250 335 189 c 4
 335 150 326 112 303 81 c 4
 300 75 295 70 291 66 c 6
 267 42 l 6
 250 25 228 13 204 11 c 4
 172 8 143 19 123 40 c 6
 99 63 l 6
 82 80 71 103 70 129 c 5
 94 153 l 5
 117 129 l 5
 118 109 125 91 136 76 c 5
 155 62 178 55 204 58 c 4
 222 60 240 67 255 79 c 5
 255 79 256 80 256 81 c 4
 279 112 287 150 287 189 c 4
 287 245 254 291 214 332 c 4
 211 336 207 339 204 342 c 4
 197 349 190 355 184 362 c 6
 160 385 l 6
 131 414 105 446 91 484 c 4
 74 533 81 586 110 629 c 4
 115 636 120 643 126 649 c 6
 150 673 l 6
 165 687 183 698 204 700 c 4
 207 701 210 701 213 701 c 4xd0
EndSplineSet
Fore
SplineSet
234 704 m 0
 272 704 303 689 326 666 c 2
 349 642 l 2
 398 593 409 508 353 452 c 2
 329 428 l 2
 322 421 313 414 303 408 c 1
 279 431 l 1
 303 455 l 2
 308 458 312 461 317 464 c 0
 356 515 349 584 313 630 c 1
 285 651 248 662 205 653 c 0
 189 650 174 643 162 633 c 2
 158 629 l 1
 129 587 123 533 140 484 c 0
 152 450 174 421 199 395 c 2
 205 389 l 2
 213 382 220 375 228 367 c 2
 251 344 l 2
 296 299 336 250 336 189 c 0
 336 150 328 111 305 81 c 0
 301 76 298 72 294 68 c 2
 271 45 l 2
 253 27 230 15 205 11 c 0
 150 1 103 20 70 53 c 2
 46 76 l 2
 -8 131 -21 223 41 291 c 2
 64 315 l 1
 88 291 l 1
 30 228 38 144 82 89 c 1
 114 63 157 50 205 58 c 0
 224 61 243 69 258 81 c 1
 281 111 289 150 289 189 c 0
 289 245 255 291 215 333 c 0
 212 336 208 339 205 342 c 0
 199 348 193 354 186 360 c 2
 163 384 l 2
 134 413 106 445 93 484 c 0
 75 533 81 587 111 629 c 0
 116 635 121 641 126 646 c 2
 149 670 l 2
 165 685 184 696 205 700 c 0
 215 703 225 704 234 704 c 0
EndSplineSet
Validated: 8388641
EndChar

StartChar: numbersign
Encoding: 35 35 36
Width: 407
Flags: MW
HStem: 16 21G<83 83 222 222> 249 47<65 91 65 98 145 230 65 138 284 324> 482 47<83 125 83 132 179 264 83 172 318 342> 731 20G<185 185 324 324>
VStem: 41 325<272 506>
LayerCount: 2
Fore
SplineSet
185 751 m 1
 209 728 l 1
 179 529 l 1
 271 529 l 1
 300 728 l 1
 324 751 l 1
 347 728 l 1
 318 529 l 1
 342 529 l 1
 366 506 l 1
 342 482 l 1
 311 482 l 1
 284 296 l 1
 324 296 l 1
 347 272 l 1
 324 249 l 1
 277 249 l 1
 246 39 l 1
 222 16 l 1
 199 39 l 1
 230 249 l 1
 138 249 l 1
 107 39 l 1
 83 16 l 1
 60 39 l 1
 91 249 l 1
 65 249 l 1
 41 272 l 1
 65 296 l 1
 98 296 l 1
 125 482 l 1
 83 482 l 1
 60 506 l 1
 83 529 l 1
 132 529 l 1
 162 728 l 1
 185 751 l 1
172 482 m 1
 145 296 l 1
 237 296 l 1
 264 482 l 1
 172 482 l 1
EndSplineSet
Validated: 1
EndChar

StartChar: glyph37
Encoding: 256 -1 37
Width: 407
Flags: MW
HStem: 11 21G<204 204> 514 20G<204 204>
VStem: 50 47 180 47<65 480 480 480>
LayerCount: 2
Fore
SplineSet
204 534 m 1
 227 510 l 1
 227 34 l 1
 204 11 l 1
 174 17 147 32 126 53 c 2
 103 76 l 2
 94 85 87 94 80 105 c 0
 50 154 50 214 50 272 c 0
 50 330 50 390 80 440 c 0
 87 450 94 460 103 468 c 2
 126 492 l 2
 147 513 174 528 204 534 c 1
180 480 m 1
 165 474 151 466 139 456 c 0
 135 451 131 446 128 440 c 0
 97 390 98 330 98 272 c 0
 98 214 97 154 128 105 c 0
 131 99 135 94 139 89 c 0
 151 79 165 71 180 65 c 1
 180 480 l 1
EndSplineSet
Validated: 33
EndChar

StartChar: less
Encoding: 60 60 38
Width: 407
Flags: MW
HStem: 16 21G<333 333> 676 20G<333 333>
VStem: 50 306
LayerCount: 2
Fore
SplineSet
333 696 m 1
 357 672 l 1
 98 356 l 1
 357 39 l 1
 333 16 l 1
 310 39 l 1
 50 356 l 1
 310 672 l 1
 333 696 l 1
EndSplineSet
Validated: 1
EndChar

StartChar: plus
Encoding: 43 43 39
Width: 407
Flags: MW
HStem: 360 47<74 180 74 180 227 333>
VStem: 180 47<161 360 161 360 407 606>
LayerCount: 2
Fore
SplineSet
204 629 m 1
 227 606 l 1
 227 407 l 1
 333 407 l 1
 357 383 l 1
 333 360 l 1
 227 360 l 1
 227 161 l 1
 204 138 l 1
 180 161 l 1
 180 360 l 1
 74 360 l 1
 50 383 l 1
 74 407 l 1
 180 407 l 1
 180 606 l 1
 204 629 l 1
EndSplineSet
Validated: 1
EndChar

StartChar: seven
Encoding: 55 55 40
Width: 407
Flags: MW
HStem: 16 21G<155 155> 704 47<74 308 74 333>
VStem: 132 47<39 39>
LayerCount: 2
Fore
SplineSet
74 751 m 1
 333 751 l 1
 357 728 l 1
 353 676 342 626 323 578 c 0
 297 510 256 450 227 383 c 0
 179 275 163 156 179 39 c 1
 155 16 l 1
 132 39 l 1
 116 156 132 275 180 383 c 0
 209 450 250 510 276 578 c 0
 292 618 303 661 308 704 c 1
 74 704 l 1
 50 728 l 1
 74 751 l 1
EndSplineSet
Validated: 33
EndChar

StartChar: bar
Encoding: 124 124 41
Width: 407
Flags: MW
HStem: 16 21G<204 204> 731 20G<204 204>
VStem: 180 47<39 728 39 728>
LayerCount: 2
Fore
SplineSet
204 751 m 1
 227 728 l 1
 227 39 l 1
 204 16 l 1
 180 39 l 1
 180 728 l 1
 204 751 l 1
EndSplineSet
Validated: 1
EndChar

StartChar: bracketright
Encoding: 93 93 42
Width: 407
Flags: MW
HStem: 16 47<74 236 74 259 74 236> 704 47<74 236 74 259>
VStem: 236 47<63 704 704 704>
LayerCount: 2
Fore
SplineSet
74 751 m 1
 259 751 l 1
 283 728 l 1
 283 39 l 1
 259 16 l 1
 74 16 l 1
 50 39 l 1
 74 63 l 1
 236 63 l 1
 236 704 l 1
 74 704 l 1
 50 728 l 1
 74 751 l 1
EndSplineSet
Validated: 1
EndChar

StartChar: slash
Encoding: 47 47 43
Width: 407
Flags: MW
HStem: 16 21G<111 111> 731 20G<296 296>
VStem: 88 232
LayerCount: 2
Fore
SplineSet
296 751 m 1
 320 728 l 1
 135 39 l 1
 111 16 l 1
 88 39 l 1
 273 728 l 1
 296 751 l 1
EndSplineSet
Validated: 1
EndChar

StartChar: glyph44
Encoding: 257 -1 44
Width: 407
Flags: MW
HStem: 704 47<176 199 176 231>
VStem: 152 103<728 728>
LayerCount: 2
Fore
SplineSet
176 751 m 1
 231 751 l 1
 255 728 l 1
 209 606 l 1
 185 582 l 1
 162 606 l 1
 199 704 l 1
 176 704 l 1
 152 728 l 1
 176 751 l 1
EndSplineSet
Validated: 1
EndChar

StartChar: K
Encoding: 75 75 45
Width: 407
Flags: MW
HStem: 16 21G<83 83 333 333> 676 20G<83 83 318 318>
VStem: 60 47<39 372 375 672>
LayerCount: 2
Fore
SplineSet
83 696 m 1
 107 672 l 1
 107 375 l 1
 295 672 l 1
 318 696 l 1
 342 672 l 1
 153 373 l 1
 357 39 l 1
 333 16 l 1
 310 39 l 1
 107 372 l 1
 107 39 l 1
 83 16 l 1
 60 39 l 1
 60 672 l 1
 83 696 l 1
EndSplineSet
Validated: 1
EndChar

StartChar: a
Encoding: 97 97 46
Width: 407
Flags: W
HStem: 11 47<192.5 215 192.5 217.5> 16 21G<333 333> 487 47<192.5 215>
VStem: 50 47 310 47<39 79 79 79 243.5 272 272 301 466 506>
LayerCount: 2
Fore
SplineSet
204 534 m 0xb8
 231 534 256 521 275 502 c 2
 299 478 l 2
 303 474 306 470 310 466 c 1
 310 506 l 1
 333 529 l 1
 357 506 l 1
 357 272 l 1
 357 39 l 1
 333 16 l 1x78
 310 39 l 1
 310 79 l 1
 306 74 303 70 299 67 c 2
 275 43 l 2
 256 24 231 11 204 11 c 0
 176 11 151 24 132 43 c 2
 108 67 l 2
 97 78 88 91 80 105 c 0
 53 156 50 215 50 272 c 0
 50 330 53 389 80 440 c 0
 88 454 97 467 108 478 c 2
 132 502 l 2
 151 521 176 534 204 534 c 0xb8
204 487 m 0
 181 487 161 479 144 465 c 0
 138 457 132 449 128 440 c 0
 100 389 98 330 98 272 c 0
 98 215 100 156 128 105 c 0
 132 96 138 87 144 79 c 0
 161 66 181 58 204 58 c 0
 226 58 246 66 263 79 c 0
 269 87 275 96 280 105 c 0
 307 156 310 215 310 272 c 0
 310 330 307 389 280 440 c 0
 275 449 269 457 263 465 c 0
 246 479 226 487 204 487 c 0
EndSplineSet
Validated: 1
EndChar

StartChar: Q
Encoding: 81 81 47
Width: 407
Flags: W
HStem: 11 47<195 212.5 195 215.5> 16 21G 653 47<195 212.5>
VStem: 52 47<317.5 394> 308 47<325.5 394>
LayerCount: 2
Fore
SplineSet
204 700 m 0xb8
 227 700 246 690 262 675 c 2
 285 651 l 2
 303 633 316 608 325 582 c 0
 350 509 355 432 355 356 c 0
 355 279 350 202 325 129 c 0
 324 125 322 120 320 116 c 2
 357 39 l 1
 333 16 l 1x78
 310 39 l 1
 295 71 l 1
 292 67 288 63 285 60 c 2
 262 37 l 2
 246 21 227 11 204 11 c 0
 181 11 161 21 146 37 c 2
 122 60 l 2
 104 78 91 103 82 129 c 0
 57 202 52 279 52 356 c 0
 52 432 57 509 82 582 c 0
 91 608 104 633 122 651 c 2
 146 675 l 2
 161 690 181 700 204 700 c 0xb8
204 653 m 0
 186 653 171 648 158 638 c 1
 146 622 136 602 129 582 c 0
 104 509 99 432 99 356 c 0
 99 279 104 202 129 129 c 0
 136 109 146 89 158 73 c 1
 171 64 186 58 204 58 c 0
 221 58 236 64 249 73 c 1
 259 86 267 100 273 116 c 1
 174 322 l 1
 198 346 l 1
 222 322 l 1
 292 176 l 1
 305 234 308 295 308 356 c 0
 308 432 303 509 278 582 c 0
 271 602 262 622 249 638 c 0
 236 648 221 653 204 653 c 0
EndSplineSet
Validated: 1
EndChar

StartChar: W
Encoding: 87 87 48
Width: 407
Flags: W
HStem: 16 21G<93 93 141 141 267 267 315 315> 676 20G<74 74 333 333>
VStem: 50 47 69 47<39 39> 291 47<39 39> 310 47<672 672>
LayerCount: 2
Fore
SplineSet
74 696 m 1xe0
 98 672 l 1xe0
 116 39 l 1
 93 16 l 1
 69 39 l 1xd0
 50 672 l 1
 74 696 l 1xe0
333 696 m 1
 357 672 l 1xc4
 338 39 l 1
 315 16 l 1
 291 39 l 1xc8
 310 672 l 1xc4
 333 696 l 1
198 421 m 1
 209 421 l 1
 233 397 l 1
 290 39 l 1
 267 16 l 1
 243 39 l 1
 204 285 l 1
 164 39 l 1
 141 16 l 1
 117 39 l 1
 174 397 l 1
 198 421 l 1
EndSplineSet
Validated: 1
EndChar

StartChar: v
Encoding: 118 118 49
Width: 407
Flags: MW
HStem: 16 21G<180 180 228 228> 509 20G<76 76 331 331>
VStem: 52 303<506 506>
LayerCount: 2
Fore
SplineSet
76 529 m 1
 99 506 l 1
 203 39 l 1
 180 16 l 1
 156 39 l 1
 52 506 l 1
 76 529 l 1
331 529 m 1
 355 506 l 1
 251 39 l 1
 228 16 l 1
 204 39 l 1
 308 506 l 1
 331 529 l 1
EndSplineSet
Validated: 1
EndChar

StartChar: five
Encoding: 53 53 50
Width: 407
Flags: W
HStem: 16 47<93 93> 704 47<136 304 136 136>
VStem: 80 48<469 496> 89 46 291 47<283 283>
LayerCount: 2
Fore
SplineSet
113 751 m 1xd8
 304 751 l 1
 327 728 l 1
 304 704 l 1
 136 704 l 1xd8
 128 496 l 1
 154 497 179 494 204 487 c 0
 231 480 257 468 277 448 c 2
 301 424 l 2
 305 420 309 415 313 410 c 0
 339 374 341 328 338 283 c 0
 335 222 324 160 287 111 c 0
 282 105 277 99 271 93 c 2
 247 70 l 2
 207 29 150 9 93 16 c 1
 69 39 l 1
 93 63 l 1
 144 57 196 73 235 106 c 0
 237 107 238 109 240 111 c 0
 277 160 288 222 291 283 c 0
 293 328 292 374 265 410 c 0
 265 411 265 411 264 412 c 0
 247 425 226 434 204 440 c 0
 171 449 137 451 104 446 c 1
 80 469 l 1xe8
 89 728 l 1
 113 751 l 1xd8
EndSplineSet
Validated: 33
EndChar

StartChar: zero
Encoding: 48 48 51
Width: 407
Flags: MW
HStem: 11 47<193.5 214 193.5 216> 709 47<193.5 214>
VStem: 50 47 310 47<345 421>
LayerCount: 2
Fore
SplineSet
204 756 m 0
 228 756 251 745 268 729 c 0
 270 728 271 726 272 725 c 2
 296 702 l 2
 320 677 333 644 342 610 c 0
 360 536 357 459 357 383 c 0
 357 307 360 231 342 157 c 0
 333 123 320 90 296 65 c 2
 272 42 l 2
 271 40 270 39 268 38 c 0
 251 21 228 11 204 11 c 0
 179 11 157 21 139 38 c 0
 137 39 136 40 135 42 c 2
 111 65 l 2
 87 90 74 123 65 157 c 0
 47 231 50 307 50 383 c 0
 50 459 47 536 65 610 c 0
 74 644 87 677 111 702 c 2
 135 725 l 2
 136 726 137 728 139 729 c 0
 157 745 179 756 204 756 c 0
204 709 m 0
 183 709 164 701 147 689 c 1
 130 666 119 638 113 610 c 0
 94 536 98 459 98 383 c 0
 98 307 94 231 113 157 c 0
 119 128 130 101 147 78 c 1
 164 66 183 58 204 58 c 0
 224 58 244 66 260 78 c 1
 277 101 288 128 295 157 c 0
 313 231 310 307 310 383 c 0
 310 459 313 536 295 610 c 0
 288 638 277 666 260 689 c 1
 244 701 224 709 204 709 c 0
EndSplineSet
Validated: 33
EndChar

StartChar: L
Encoding: 76 76 52
Width: 407
Flags: MW
HStem: 16 47<116 333 116 333 93 333> 676 20G<93 93>
VStem: 69 47<63 672 63 672 63 672>
LayerCount: 2
Fore
SplineSet
93 696 m 1
 116 672 l 1
 116 63 l 1
 333 63 l 1
 357 39 l 1
 333 16 l 1
 93 16 l 1
 69 39 l 1
 69 672 l 1
 93 696 l 1
EndSplineSet
Validated: 1
EndChar

StartChar: q
Encoding: 113 113 53
Width: 407
Flags: W
HStem: 16 47<191 213 191 216> 489 47<191 213> 511 20G<331 331>
VStem: 50 47<247.5 304.5> 308 47
LayerCount: 2
Fore
SplineSet
202 536 m 0xd8
 230 536 254 523 274 504 c 2
 297 480 l 2
 301 476 304 472 308 468 c 1
 308 508 l 1
 331 531 l 1xb8
 354 508 l 1
 354 276 l 1
 354 -176 l 1
 331 -200 l 1
 308 -176 l 1
 308 83 l 1
 304 79 301 75 297 72 c 2
 274 48 l 2
 254 29 230 16 202 16 c 0
 175 16 150 29 131 48 c 2
 108 72 l 2
 97 82 87 95 80 109 c 0
 53 160 50 219 50 276 c 0
 50 333 53 392 80 442 c 0
 87 456 97 469 108 480 c 2
 131 504 l 2
 150 523 175 536 202 536 c 0xd8
202 489 m 0
 180 489 160 481 143 467 c 0
 137 460 131 451 127 442 c 0
 100 392 97 333 97 276 c 0
 97 219 100 160 127 109 c 0
 131 101 137 92 143 84 c 0
 160 71 180 63 202 63 c 0
 224 63 244 71 261 84 c 0
 268 92 273 101 278 109 c 0
 305 160 308 219 308 276 c 0
 308 333 305 392 278 442 c 0
 273 451 268 460 261 467 c 0
 244 481 224 489 202 489 c 0
EndSplineSet
Validated: 1
EndChar

StartChar: z
Encoding: 122 122 54
Width: 407
Flags: MW
HStem: 16 47<130 317 130 317 96 317> 482 47<102 268 102 302>
VStem: 73 267<39 39>
LayerCount: 2
Fore
SplineSet
102 529 m 1
 302 529 l 1
 325 506 l 1
 130 63 l 1
 317 63 l 1
 340 39 l 1
 317 16 l 1
 96 16 l 1
 73 39 l 1
 268 482 l 1
 102 482 l 1
 78 506 l 1
 102 529 l 1
EndSplineSet
Validated: 1
EndChar

StartChar: four
Encoding: 52 52 55
Width: 407
Flags: MW
HStem: 16 21G<267 267> 207 47<74 243 74 243 290 333> 731 20G<215 215>
VStem: 243 47<39 207 39 207 254 392>
LayerCount: 2
Fore
SplineSet
215 751 m 1
 238 728 l 1
 98 300 l 1
 74 277 l 1
 50 300 l 1
 191 728 l 1
 215 751 l 1
267 415 m 1
 290 392 l 1
 290 254 l 1
 333 254 l 1
 357 231 l 1
 333 207 l 1
 290 207 l 1
 290 39 l 1
 267 16 l 1
 243 39 l 1
 243 207 l 1
 74 207 l 1
 50 231 l 1
 74 254 l 1
 243 254 l 1
 243 392 l 1
 267 415 l 1
EndSplineSet
Validated: 1
EndChar

StartChar: eight
Encoding: 56 56 56
Width: 407
Flags: MW
HStem: 11 47<190.5 217.5 190.5 220> 709 47<192.5 215.5>
VStem: 50 306
LayerCount: 2
Fore
SplineSet
204 756 m 0
 232 756 260 745 280 725 c 2
 303 702 l 2
 306 700 308 697 310 695 c 0
 330 670 337 638 335 606 c 0
 328 534 277 477 227 425 c 1
 285 364 345 300 357 217 c 0
 363 172 354 125 327 88 c 0
 322 82 318 77 313 72 c 2
 289 48 l 2
 266 25 236 11 204 11 c 0
 171 11 141 25 118 48 c 2
 95 72 l 2
 90 77 85 82 80 88 c 0
 53 125 44 172 50 217 c 0
 62 300 122 364 180 425 c 1
 130 477 79 534 73 606 c 0
 70 638 77 670 97 695 c 0
 99 697 102 700 104 702 c 2
 127 725 l 2
 147 745 175 756 204 756 c 0
204 709 m 0
 181 709 158 702 140 689 c 1
 123 665 117 635 120 606 c 0
 125 545 162 495 204 450 c 1
 245 495 282 545 287 606 c 0
 290 635 284 665 267 689 c 1
 249 702 227 709 204 709 c 0
204 400 m 1
 154 347 108 289 98 217 c 0
 91 172 100 125 128 88 c 0
 129 87 130 86 131 84 c 0
 151 68 177 58 204 58 c 0
 231 58 256 68 277 84 c 0
 278 86 279 87 280 88 c 0
 307 125 316 172 310 217 c 0
 299 289 253 347 204 400 c 1
EndSplineSet
Validated: 33
EndChar

StartChar: O
Encoding: 79 79 57
Width: 407
Flags: MW
HStem: 11 47<195 212.5 195 215.5> 653 47<195 212.5>
VStem: 52 47<317.5 394> 308 47<317.5 394>
LayerCount: 2
Fore
SplineSet
204 700 m 0
 227 700 246 690 262 675 c 2
 285 651 l 2
 303 633 316 608 325 582 c 0
 350 509 355 432 355 356 c 0
 355 279 350 202 325 129 c 0
 316 103 303 78 285 60 c 2
 262 37 l 2
 246 21 227 11 204 11 c 0
 181 11 161 21 146 37 c 2
 122 60 l 2
 104 78 91 103 82 129 c 0
 57 202 52 279 52 356 c 0
 52 432 57 509 82 582 c 0
 91 608 104 633 122 651 c 2
 146 675 l 2
 161 690 181 700 204 700 c 0
204 653 m 0
 186 653 171 648 158 638 c 1
 146 622 136 602 129 582 c 0
 104 509 99 432 99 356 c 0
 99 279 104 202 129 129 c 0
 136 109 146 89 158 73 c 1
 171 64 186 58 204 58 c 0
 221 58 236 64 249 73 c 1
 262 89 271 109 278 129 c 0
 303 202 308 279 308 356 c 0
 308 432 303 509 278 582 c 0
 271 602 262 622 249 638 c 0
 236 648 221 653 204 653 c 0
EndSplineSet
Validated: 1
EndChar

StartChar: b
Encoding: 98 98 58
Width: 407
Flags: W
HStem: 11 47<192.5 215 192.5 217.5> 16 21G<74 74> 487 47<192.5 215> 731 20G<74 74>
VStem: 50 47 310 47<243.5 301>
LayerCount: 2
Fore
SplineSet
74 751 m 1x7c
 98 728 l 1
 98 466 l 2
 101 470 104 474 108 478 c 2
 132 502 l 2
 151 521 176 534 204 534 c 0
 231 534 256 521 275 502 c 2
 299 478 l 2
 310 467 319 454 327 440 c 0
 354 389 357 330 357 272 c 0
 357 215 354 156 327 105 c 0
 319 91 310 78 299 67 c 2
 275 43 l 2
 256 24 231 11 204 11 c 0xbc
 176 11 151 24 132 43 c 2
 108 67 l 2
 104 70 101 74 98 79 c 2
 98 39 l 1
 74 16 l 1
 50 39 l 1
 50 272 l 1
 50 728 l 1
 74 751 l 1x7c
204 487 m 0
 181 487 161 479 144 465 c 0
 138 457 132 449 128 440 c 0
 100 389 98 330 98 272 c 0
 98 215 100 156 128 105 c 0
 132 96 138 87 144 79 c 0
 161 66 181 58 204 58 c 0
 226 58 246 66 263 79 c 0
 269 87 275 96 280 105 c 0
 307 156 310 215 310 272 c 0
 310 330 307 389 280 440 c 0
 275 449 269 457 263 465 c 0
 246 479 226 487 204 487 c 0
EndSplineSet
Validated: 1
EndChar

StartChar: J
Encoding: 74 74 59
Width: 407
Flags: MW
HStem: 11 47<161 167 161 167> 676 20G<254 254>
VStem: 63 47 230 47<189 672>
LayerCount: 2
Fore
SplineSet
254 696 m 1
 277 672 l 1
 277 189 l 2
 277 152 275 113 257 80 c 0
 252 71 246 63 239 55 c 2
 215 32 l 2
 202 19 185 10 167 11 c 0
 150 11 135 19 124 31 c 2
 100 54 l 2
 93 62 87 71 82 80 c 0
 65 113 63 152 63 189 c 2
 63 208 l 1
 87 232 l 1
 111 208 l 1
 111 189 l 2
 111 152 112 113 129 80 c 0
 131 76 134 72 136 68 c 0
 145 62 155 58 167 58 c 0
 180 57 192 62 203 69 c 0
 205 72 208 76 210 80 c 0
 228 113 230 152 230 189 c 2
 230 672 l 1
 254 696 l 1
EndSplineSet
Validated: 33
EndChar

StartChar: P
Encoding: 80 80 60
Width: 407
Flags: MW
HStem: 16 21G<93 93> 322 47<116 204 116 204> 649 47<116 116 116 204>
VStem: 69 47<39 322 39 345 369 649> 310 47<488.5 529.5>
LayerCount: 2
Fore
SplineSet
93 696 m 1
 204 696 l 2
 236 696 267 682 290 660 c 2
 314 636 l 2
 317 633 320 629 323 625 c 0
 349 593 357 550 357 509 c 0
 357 467 349 425 323 392 c 0
 320 388 317 385 314 381 c 2
 290 358 l 2
 267 335 236 322 204 322 c 2
 116 322 l 1
 116 39 l 1
 93 16 l 1
 69 39 l 1
 69 345 l 1
 69 672 l 1
 93 696 l 1
116 649 m 1
 116 369 l 1
 204 369 l 2
 231 369 257 378 278 394 c 1
 302 426 310 468 310 509 c 0
 310 550 302 591 278 623 c 1
 257 640 231 649 204 649 c 2
 116 649 l 1
EndSplineSet
Validated: 1
EndChar

StartChar: dieresis
Encoding: 168 168 61
Width: 407
Flags: MW
HStem: 610 142
VStem: 125 47<633 728 633 728> 236 47<633 728 633 728>
LayerCount: 2
Fore
SplineSet
148 751 m 1
 172 728 l 1
 172 633 l 1
 148 610 l 1
 125 633 l 1
 125 728 l 1
 148 751 l 1
259 751 m 1
 283 728 l 1
 283 633 l 1
 259 610 l 1
 236 633 l 1
 236 728 l 1
 259 751 l 1
EndSplineSet
Validated: 1
EndChar

StartChar: Z
Encoding: 90 90 62
Width: 407
Flags: MW
HStem: 16 47<124 315 124 315 93 315> 649 47<94 265 94 296>
VStem: 69 269<39 39>
LayerCount: 2
Fore
SplineSet
94 696 m 1
 296 696 l 1
 320 672 l 1
 124 63 l 1
 315 63 l 1
 338 39 l 1
 315 16 l 1
 93 16 l 1
 69 39 l 1
 265 649 l 1
 94 649 l 1
 71 672 l 1
 94 696 l 1
EndSplineSet
Validated: 1
EndChar

StartChar: asterisk
Encoding: 42 42 63
Width: 407
Flags: MW
VStem: 180 47<431 606 431 606>
LayerCount: 2
Fore
SplineSet
204 629 m 1
 227 606 l 1
 227 431 l 1
 333 479 l 1
 357 456 l 1
 333 432 l 1
 232 387 l 1
 312 217 l 1
 289 193 l 1
 265 217 l 1
 204 347 l 1
 142 217 l 1
 118 193 l 1
 95 217 l 1
 175 387 l 1
 74 432 l 1
 50 456 l 1
 74 479 l 1
 180 431 l 1
 180 606 l 1
 204 629 l 1
EndSplineSet
Validated: 1
EndChar

StartChar: comma
Encoding: 44 44 64
Width: 407
Flags: MW
HStem: 138 47<217 217 217 265>
VStem: 265 47<106 138 138 138>
LayerCount: 2
Fore
SplineSet
204 185 m 1
 289 185 l 1
 312 161 l 1
 312 106 l 1
 135 -102 l 1
 111 -126 l 1
 93 -126 l 1
 69 -102 l 1
 180 161 l 1
 204 185 l 1
217 138 m 1
 144 -36 l 1
 265 106 l 1
 265 138 l 1
 217 138 l 1
EndSplineSet
Validated: 1
EndChar

StartChar: asciicircum
Encoding: 94 94 65
Width: 407
Flags: MW
HStem: 610 142
VStem: 106 195<633 633>
LayerCount: 2
Fore
SplineSet
176 751 m 1
 199 728 l 1
 153 633 l 1
 130 610 l 1
 106 633 l 1
 152 728 l 1
 176 751 l 1
231 751 m 1
 255 728 l 1
 301 633 l 1
 278 610 l 1
 254 633 l 1
 208 728 l 1
 231 751 l 1
EndSplineSet
Validated: 1
EndChar

StartChar: semicolon
Encoding: 59 59 66
Width: 407
Flags: MW
HStem: 138 47<192 192 192 222> 314 47<185 223 185 246 161 223> 408 47
VStem: 137 47 223 47<361 408 408 408>
LayerCount: 2
Fore
SplineSet
161 456 m 1
 246 456 l 1
 270 432 l 1
 270 338 l 1
 246 314 l 1
 161 314 l 1
 137 338 l 1
 137 432 l 1
 161 456 l 1
185 408 m 1
 185 361 l 1
 223 361 l 1
 223 408 l 1
 185 408 l 1
176 185 m 1
 259 185 l 1
 283 161 l 1
 135 -102 l 1
 111 -126 l 1
 93 -126 l 1
 69 -102 l 1
 152 161 l 1
 176 185 l 1
192 138 m 1
 153 14 l 1
 222 138 l 1
 192 138 l 1
EndSplineSet
Validated: 1
EndChar

StartChar: bracketleft
Encoding: 91 91 67
Width: 407
Flags: MW
HStem: 16 47<172 333 172 333 148 333> 704 47<172 333 172 172>
VStem: 125 47<63 704 63 728 63 728>
LayerCount: 2
Fore
SplineSet
148 751 m 1
 333 751 l 1
 357 728 l 1
 333 704 l 1
 172 704 l 1
 172 63 l 1
 333 63 l 1
 357 39 l 1
 333 16 l 1
 148 16 l 1
 125 39 l 1
 125 728 l 1
 148 751 l 1
EndSplineSet
Validated: 1
EndChar

StartChar: A
Encoding: 65 65 68
Width: 407
Flags: MW
HStem: 16 21G<70 70 337 337> 237 47<137 204 137 204 129 204 204 270> 676 20G<181 181 226 226>
VStem: 47 314
LayerCount: 2
Fore
SplineSet
181 696 m 1
 204 673 l 1
 226 696 l 1
 249 672 l 1
 322 261 l 1
 360 39 l 1
 337 16 l 1
 313 39 l 1
 279 237 l 1
 204 237 l 1
 129 237 l 1
 94 39 l 1
 70 16 l 1
 47 39 l 1
 86 261 l 1
 86 261 86 261 86 261 c 1
 86 261 86 261 86 261 c 1
 158 672 l 1
 181 696 l 1
204 664 m 1
 137 284 l 1
 204 284 l 1
 270 284 l 1
 204 664 l 1
EndSplineSet
Validated: 5
EndChar

StartChar: x
Encoding: 120 120 69
Width: 407
Flags: MW
HStem: 16 21G<96 96 311 311> 509 20G<104 104 304 304>
VStem: 73 262<39 39>
LayerCount: 2
Fore
SplineSet
104 529 m 1
 127 506 l 1
 204 327 l 1
 280 506 l 1
 304 529 l 1
 327 506 l 1
 231 281 l 1
 335 39 l 1
 311 16 l 1
 287 39 l 1
 204 234 l 1
 120 39 l 1
 96 16 l 1
 73 39 l 1
 176 281 l 1
 80 506 l 1
 104 529 l 1
EndSplineSet
Validated: 1
EndChar

StartChar: r
Encoding: 114 114 70
Width: 407
Flags: MW
HStem: 16 21G<130 130> 487 48
VStem: 106 47<39 300 482 506>
LayerCount: 2
Fore
SplineSet
238 534 m 0
 241 534 245 534 248 534 c 0
 264 532 279 525 290 514 c 2
 314 490 l 2
 321 483 327 474 330 464 c 1
 307 441 l 1
 283 464 l 2
 281 469 279 473 277 477 c 0
 268 482 258 486 248 487 c 0
 227 489 209 484 194 474 c 1
 164 434 153 366 153 300 c 2
 153 39 l 1
 130 16 l 1
 106 39 l 1
 106 300 l 1
 106 506 l 1
 130 529 l 1
 153 506 l 1
 153 482 l 2
 155 484 156 486 158 487 c 2
 181 511 l 2
 196 526 215 534 238 534 c 0
EndSplineSet
Validated: 33
EndChar

StartChar: i
Encoding: 105 105 71
Width: 407
Flags: W
HStem: 16 21G<241 241> 482 47<130 217 130 241> 731 20G<222 241 241 241>
VStem: 199 66 217 47<39 482 482 482>
LayerCount: 2
Fore
SplineSet
222 751 m 1xf0
 241 751 l 1
 264 728 l 1
 264 689 l 1
 241 665 l 1
 222 665 l 1
 199 689 l 1
 199 728 l 1
 222 751 l 1xf0
130 529 m 1
 241 529 l 1
 264 506 l 1
 264 39 l 1
 241 16 l 1
 217 39 l 1
 217 482 l 1xe8
 130 482 l 1
 106 506 l 1
 130 529 l 1
EndSplineSet
Validated: 1
EndChar

StartChar: G
Encoding: 71 71 72
Width: 407
Flags: W
HStem: 11 47<241 241> 315 47<217 299 217 322> 653 49
VStem: 58 47<356 356> 287 47 299 47<95 315 315 315>
LayerCount: 2
Fore
SplineSet
221 702 m 0xf4
 246 702 269 692 286 675 c 2
 310 651 l 2
 322 640 331 624 335 607 c 1
 311 583 l 1
 287 607 l 1xf8
 285 618 280 629 273 639 c 1
 254 652 229 658 204 653 c 0
 188 650 174 644 162 635 c 1
 150 619 141 601 133 582 c 0
 105 510 104 432 105 356 c 0
 106 278 110 200 142 129 c 0
 149 113 159 97 171 83 c 0
 191 67 214 57 241 58 c 0
 258 59 274 64 288 73 c 0
 292 80 296 87 299 95 c 2
 299 315 l 1
 217 315 l 1
 193 338 l 1
 217 362 l 1
 322 362 l 1
 346 338 l 1
 346 95 l 1
 341 82 334 70 324 61 c 2
 301 37 l 2
 285 21 264 12 241 11 c 0
 209 10 181 24 158 46 c 2
 135 70 l 2
 118 86 105 107 95 129 c 0
 62 200 59 278 58 356 c 0
 57 432 58 510 86 582 c 0
 96 606 109 630 127 648 c 2
 150 671 l 2
 165 686 183 696 204 700 c 0
 209 702 215 702 221 702 c 0xf4
EndSplineSet
Validated: 33
EndChar

StartChar: k
Encoding: 107 107 73
Width: 407
Flags: MW
HStem: 16 21G<113 113 317 317> 509 20G<296 296> 731 20G<113 113>
VStem: 89 47<39 728 39 728>
LayerCount: 2
Fore
SplineSet
113 751 m 1
 136 728 l 1
 136 39 l 1
 113 16 l 1
 89 39 l 1
 89 728 l 1
 113 751 l 1
296 529 m 1
 320 506 l 1
 185 297 l 1
 340 39 l 1
 317 16 l 1
 293 39 l 1
 137 297 l 1
 273 506 l 1
 296 529 l 1
EndSplineSet
Validated: 1
EndChar

StartChar: three
Encoding: 51 51 74
Width: 407
Flags: MW
HStem: 11 47<188.5 218 188.5 220.5> 421 47<197 204 204 218> 704 47<76 311 76 311>
VStem: 319 47<214 264.5>
LayerCount: 2
Fore
SplineSet
76 751 m 1
 311 751 l 1
 335 728 l 1
 311 704 l 1
 76 704 l 1
 52 728 l 1
 76 751 l 1
311 682 m 1
 335 658 l 1
 197 468 l 2
 199 468 201 468 204 468 c 0
 237 468 268 453 292 430 c 2
 315 406 l 2
 322 400 329 392 334 384 c 0
 362 342 366 290 366 239 c 0
 366 189 362 137 334 95 c 0
 329 87 322 79 315 72 c 2
 292 49 l 2
 268 25 237 11 204 11 c 0
 167 11 134 25 109 50 c 2
 85 74 l 2
 74 85 65 98 58 113 c 1
 82 137 l 1
 105 113 l 2
 110 103 115 94 121 86 c 0
 144 68 173 58 204 58 c 0
 232 58 258 68 280 85 c 0
 282 88 285 92 287 95 c 0
 315 137 319 189 319 239 c 0
 319 290 315 342 287 384 c 0
 285 387 282 391 280 394 c 0
 258 411 232 421 204 421 c 0
 185 421 166 417 148 410 c 1
 125 433 l 1
 287 658 l 1
 311 682 l 1
EndSplineSet
Validated: 1
EndChar

StartChar: B
Encoding: 66 66 75
Width: 407
Flags: HW
LayerCount: 2
Fore
SplineSet
74 696 m 1
 204 696 l 2
 229 696 254 688 272 670 c 2
 295 647 l 2
 298 644 300 642 302 639 c 0
 327 607 320 563 320 523 c 0
 320 482 327 439 302 406 c 0
 300 404 298 401 295 399 c 2
 279 382 l 1
 288 378 296 372 304 365 c 2
 327 341 l 2
 329 340 331 338 332 336 c 0
 362 301 357 252 357 206 c 0
 357 160 362 111 332 76 c 0
 331 74 329 73 327 71 c 2
 304 48 l 2
 278 22 240 16 204 16 c 2
 74 16 l 1
 50 39 l 1
 50 373 l 1
 50 672 l 1
 74 696 l 1
98 649 m 1
 98 397 l 1
 204 397 l 2
 223 397 243 401 259 412 c 1
 279 443 273 484 273 523 c 0
 273 561 279 602 259 634 c 1
 243 644 223 649 204 649 c 2
 98 649 l 1
98 350 m 1
 98 63 l 1
 204 63 l 2
 235 63 266 67 291 84 c 1
 314 118 310 164 310 206 c 0
 310 249 314 294 291 328 c 1
 266 345 235 350 204 350 c 2
 98 350 l 1
EndSplineSet
EndChar

StartChar: o
Encoding: 111 111 76
Width: 407
Flags: MW
HStem: 11 47<192.5 215 192.5 217.5> 487 47<192.5 215>
VStem: 50 47 310 47<243.5 301>
LayerCount: 2
Fore
SplineSet
204 534 m 0
 231 534 256 521 275 502 c 2
 299 478 l 2
 310 467 319 454 327 440 c 0
 354 389 357 330 357 272 c 0
 357 215 354 156 327 105 c 0
 319 91 310 78 299 67 c 2
 275 43 l 2
 256 24 231 11 204 11 c 0
 176 11 151 24 132 43 c 2
 108 67 l 2
 97 78 88 91 80 105 c 0
 53 156 50 215 50 272 c 0
 50 330 53 389 80 440 c 0
 88 454 97 467 108 478 c 2
 132 502 l 2
 151 521 176 534 204 534 c 0
204 487 m 0
 181 487 161 479 144 465 c 0
 138 457 132 449 128 440 c 0
 100 389 98 330 98 272 c 0
 98 215 100 156 128 105 c 0
 132 96 138 87 144 79 c 0
 161 66 181 58 204 58 c 0
 226 58 246 66 263 79 c 0
 269 87 275 96 280 105 c 0
 307 156 310 215 310 272 c 0
 310 330 307 389 280 440 c 0
 275 449 269 457 263 465 c 0
 246 479 226 487 204 487 c 0
EndSplineSet
Validated: 1
EndChar

StartChar: U
Encoding: 85 85 77
Width: 407
Flags: MW
HStem: 11 47<193.5 214.5 193.5 217> 676 20G<83 83 324 324>
VStem: 60 47<245 672> 300 47<245 672>
LayerCount: 2
Fore
SplineSet
83 696 m 1
 107 672 l 1
 107 245 l 2
 107 194 110 141 135 97 c 0
 138 90 142 84 147 78 c 0
 163 66 183 58 204 58 c 0
 225 58 244 66 260 78 c 0
 265 84 269 90 273 97 c 0
 298 141 300 194 300 245 c 2
 300 672 l 1
 324 696 l 1
 347 672 l 1
 347 245 l 2
 347 194 345 141 320 97 c 0
 313 85 305 74 296 65 c 2
 273 42 l 2
 254 23 230 11 204 11 c 0
 177 11 153 23 135 42 c 2
 111 65 l 2
 102 74 94 85 88 97 c 0
 63 141 60 194 60 245 c 2
 60 672 l 1
 83 696 l 1
EndSplineSet
Validated: 1
EndChar

StartChar: period
Encoding: 46 46 78
Width: 407
Flags: MW
HStem: 16 47<185 223 185 246 161 223 185 223 185 246 161 223> 124 47<185 185 185 223 185 185 185 223>
VStem: 137 47 223 47<63 124 63 124 124 124 124 124>
LayerCount: 2
Fore
SplineSet
161 171 m 1
 246 171 l 1
 270 147 l 1
 270 39 l 1
 246 16 l 1
 161 16 l 1
 137 39 l 1
 137 147 l 1
 161 171 l 1
185 124 m 1
 185 63 l 1
 223 63 l 1
 223 124 l 1
 185 124 l 1
161 171 m 1
 246 171 l 1
 270 147 l 1
 270 39 l 1
 246 16 l 1
 161 16 l 1
 137 39 l 1
 137 147 l 1
 161 171 l 1
185 124 m 1
 185 63 l 1
 223 63 l 1
 223 124 l 1
 185 124 l 1
EndSplineSet
Validated: 5
EndChar

StartChar: at
Encoding: 64 64 79
Width: 407
Flags: MW
HStem: 11 47<151.5 162.5 151.5 165.5 283 291> 360 47<151.5 162.5> 709 47<194.5 212.5>
VStem: 50 47 217 47<188 209 209 230 370 383> 310 47<106 383 106 421.5>
LayerCount: 2
Fore
SplineSet
204 756 m 0
 225 756 244 744 259 729 c 0
 260 728 261 727 262 726 c 2
 285 703 l 2
 311 677 329 645 340 610 c 0
 363 537 357 460 357 383 c 2
 357 106 l 1
 366 85 360 63 346 49 c 2
 323 26 l 2
 314 17 301 11 287 11 c 0
 273 11 260 17 251 26 c 2
 228 49 l 2
 226 51 225 52 223 54 c 2
 223 54 223 54 223 53 c 2
 199 30 l 2
 188 18 174 11 157 11 c 0
 141 11 127 18 115 30 c 2
 92 53 l 2
 83 62 75 74 70 86 c 0
 52 124 50 167 50 209 c 0
 50 251 52 293 70 332 c 0
 75 344 83 355 92 364 c 2
 115 388 l 2
 127 399 141 407 157 407 c 0
 174 407 188 399 199 388 c 2
 217 370 l 1
 217 383 l 1
 241 407 l 1
 264 383 l 1
 264 209 l 1
 264 106 l 1
 258 91 259 76 265 63 c 1
 271 60 279 58 287 58 c 0
 295 58 302 60 309 63 c 1
 315 76 316 91 310 106 c 1
 310 383 l 2
 310 460 316 537 293 610 c 0
 283 639 269 667 250 690 c 0
 236 701 221 709 204 709 c 0
 185 709 168 699 153 687 c 0
 114 641 94 583 98 522 c 1
 74 499 l 1
 50 522 l 1
 47 588 71 652 118 699 c 2
 141 723 l 2
 144 725 146 727 148 729 c 0
 164 743 182 756 204 756 c 0
187 351 m 0
 178 356 168 360 157 360 c 0
 146 360 136 356 128 351 c 0
 123 345 120 338 117 332 c 0
 100 293 98 251 98 209 c 0
 98 167 100 124 117 86 c 0
 120 79 123 73 128 67 c 0
 136 61 146 58 157 58 c 0
 168 58 178 61 187 67 c 0
 191 73 195 79 198 86 c 0
 215 124 217 167 217 209 c 0
 217 251 215 293 198 332 c 0
 195 338 191 345 187 351 c 0
EndSplineSet
Validated: 33
EndChar

StartChar: h
Encoding: 104 104 80
Width: 407
Flags: MW
HStem: 16 21G<102 102 305 305> 731 20G<102 102>
VStem: 78 47<39 300 474 728> 282 47<39 300 39 324.5>
LayerCount: 2
Fore
SplineSet
102 751 m 1
 125 728 l 1
 125 474 l 2
 127 476 129 478 132 480 c 2
 155 504 l 2
 173 522 197 533 222 529 c 0
 237 527 250 519 260 509 c 2
 284 485 l 2
 295 474 303 460 310 445 c 0
 329 399 329 349 329 300 c 2
 329 39 l 1
 305 16 l 1
 282 39 l 1
 282 300 l 2
 282 349 282 399 263 445 c 0
 259 454 254 463 248 472 c 0
 240 477 232 480 222 482 c 0
 202 485 183 479 167 467 c 0
 162 460 157 453 153 445 c 0
 130 400 125 350 125 300 c 2
 125 39 l 1
 102 16 l 1
 78 39 l 1
 78 300 l 1
 78 728 l 1
 102 751 l 1
EndSplineSet
Validated: 33
EndChar

StartChar: l
Encoding: 108 108 81
Width: 407
Flags: MW
HStem: 16 47<190 296 190 296 167 296> 728 20G<167 167>
VStem: 143 47<63 725 63 725 63 725>
LayerCount: 2
Fore
SplineSet
167 748 m 1
 190 725 l 1
 190 63 l 1
 296 63 l 1
 320 39 l 1
 296 16 l 1
 167 16 l 1
 143 39 l 1
 143 725 l 1
 167 748 l 1
EndSplineSet
Validated: 1
EndChar

StartChar: braceright
Encoding: 125 125 82
Width: 407
Flags: MW
HStem: 16 47<74 130 74 130> 360 47<320 333> 704 47<74 130 74 130>
VStem: 50 306
LayerCount: 2
Fore
SplineSet
74 751 m 1
 130 751 l 2
 150 751 168 742 182 728 c 2
 205 705 l 2
 214 696 222 684 227 672 c 0
 261 595 211 498 261 429 c 1
 282 414 307 407 333 407 c 1
 357 383 l 1
 333 360 l 1
 307 360 282 353 262 339 c 1
 221 280 254 201 236 134 c 0
 230 109 217 87 200 70 c 2
 176 47 l 2
 163 33 147 23 130 16 c 1
 74 16 l 1
 50 39 l 1
 74 63 l 1
 130 63 l 1
 142 68 154 74 164 83 c 0
 176 97 184 115 189 134 c 0
 208 203 172 283 217 342 c 0
 220 345 222 348 225 351 c 2
 249 375 l 2
 252 378 255 381 259 384 c 1
 255 386 252 389 248 393 c 2
 225 416 l 2
 222 419 220 422 217 425 c 0
 162 494 214 594 180 672 c 0
 177 679 173 686 169 692 c 0
 158 699 144 704 130 704 c 2
 74 704 l 1
 50 728 l 1
 74 751 l 1
EndSplineSet
Validated: 33
EndChar

StartChar: guillemotright
Encoding: 187 187 83
Width: 407
Flags: MW
HStem: 11 21G<130 130 204 204>
VStem: 106 251<34 233 233 432>
LayerCount: 2
Fore
SplineSet
130 456 m 1
 153 432 l 1
 283 233 l 1
 153 34 l 1
 130 11 l 1
 106 34 l 1
 236 233 l 1
 106 432 l 1
 130 456 l 1
204 456 m 1
 227 432 l 1
 357 233 l 1
 227 34 l 1
 204 11 l 1
 180 34 l 1
 310 233 l 1
 180 432 l 1
 204 456 l 1
EndSplineSet
Validated: 1
EndChar

StartChar: w
Encoding: 119 119 84
Width: 407
Flags: W
HStem: 16 21G<94 94 143 143 265 265 313 313> 509 20G<76 76 331 331>
VStem: 52 47<506 506> 71 47<39 39> 289 47<39 39> 308 47<506 506>
LayerCount: 2
Fore
SplineSet
76 529 m 1xe0
 99 506 l 1xe0
 118 39 l 1
 94 16 l 1
 71 39 l 1xd0
 52 506 l 1
 76 529 l 1xe0
331 529 m 1
 355 506 l 1xc4
 336 39 l 1
 313 16 l 1
 289 39 l 1xc8
 308 506 l 1xc4
 331 529 l 1
204 318 m 1
 227 295 l 1
 288 39 l 1
 265 16 l 1
 241 39 l 1
 204 196 l 1
 166 39 l 1
 143 16 l 1
 119 39 l 1
 180 295 l 1
 204 318 l 1
EndSplineSet
Validated: 1
EndChar

StartChar: C
Encoding: 67 67 85
Width: 407
Flags: MW
HStem: 653 47<222 222>
VStem: 73 47<317.5 394> 301 47<105 105>
LayerCount: 2
Fore
SplineSet
236 702 m 0
 260 702 283 692 300 675 c 2
 324 651 l 2
 336 639 344 624 348 607 c 1
 325 583 l 1
 301 607 l 1
 299 618 294 629 287 639 c 1
 269 651 246 657 222 653 c 0
 205 651 191 644 178 634 c 0
 166 619 156 601 149 582 c 0
 121 510 120 432 120 356 c 0
 120 279 121 201 149 129 c 0
 156 111 166 93 178 77 c 1
 191 67 205 61 222 58 c 0
 246 54 269 60 287 73 c 0
 294 82 299 93 301 105 c 1
 325 128 l 1
 348 105 l 1
 344 87 336 72 324 60 c 2
 300 36 l 2
 280 16 252 6 222 11 c 0
 200 14 181 25 166 41 c 2
 142 64 l 2
 125 82 111 105 102 129 c 0
 74 201 73 279 73 356 c 0
 73 432 74 510 102 582 c 0
 111 606 125 629 142 647 c 2
 166 671 l 2
 181 686 200 697 222 700 c 0
 227 701 231 702 236 702 c 0
EndSplineSet
Validated: 33
EndChar

StartChar: glyph86
Encoding: 258 -1 86
Width: 407
Flags: MW
HStem: 704 47<91 117 91 147 260 281>
VStem: 68 272<728 728>
LayerCount: 2
Fore
SplineSet
91 751 m 1
 147 751 l 1
 170 728 l 1
 139 606 l 1
 115 582 l 1
 92 606 l 1
 117 704 l 1
 91 704 l 1
 68 728 l 1
 91 751 l 1
260 751 m 1
 316 751 l 1
 340 728 l 1
 279 606 l 1
 255 582 l 1
 232 606 l 1
 281 704 l 1
 260 704 l 1
 237 728 l 1
 260 751 l 1
EndSplineSet
Validated: 1
EndChar

StartChar: j
Encoding: 106 106 87
Width: 407
Flags: W
HStem: 482 47<148 217 148 241> 731 20G<222 241 241 241>
VStem: 199 66 217 47<-21 482 482 482>
LayerCount: 2
Fore
SplineSet
222 751 m 1xe0
 241 751 l 1
 264 728 l 1
 264 689 l 1
 241 665 l 1
 222 665 l 1
 199 689 l 1
 199 728 l 1
 222 751 l 1xe0
148 529 m 1
 241 529 l 1
 264 506 l 1
 264 -33 l 1
 241 -57 l 1
 102 -126 l 1
 78 -102 l 1
 102 -79 l 1
 217 -21 l 1
 217 482 l 1xd0
 148 482 l 1
 125 506 l 1
 148 529 l 1
EndSplineSet
Validated: 1
EndChar

StartChar: grave
Encoding: 96 96 88
Width: 407
Flags: MW
HStem: 610 142
VStem: 152 93
LayerCount: 2
Fore
SplineSet
176 751 m 1
 199 728 l 1
 246 633 l 1
 222 610 l 1
 199 633 l 1
 152 728 l 1
 176 751 l 1
EndSplineSet
Validated: 1
EndChar

StartChar: glyph89
Encoding: 259 -1 89
Width: 407
Flags: MW
HStem: 582 47<314 333 314 333 278 333> 731 20G<346 346>
VStem: 254 115
LayerCount: 2
Fore
SplineSet
346 751 m 1
 369 728 l 1
 314 629 l 1
 333 629 l 1
 357 606 l 1
 333 582 l 1
 278 582 l 1
 254 606 l 1
 322 728 l 1
 346 751 l 1
EndSplineSet
Validated: 1
EndChar

StartChar: T
Encoding: 84 84 91
Width: 407
Flags: MW
HStem: 16 21G<204 204> 649 47<74 180 74 204 227 333 227 227>
VStem: 180 47<39 649 39 649>
LayerCount: 2
Fore
SplineSet
74 696 m 1
 204 696 l 1
 333 696 l 1
 357 672 l 1
 333 649 l 1
 227 649 l 1
 227 39 l 1
 204 16 l 1
 180 39 l 1
 180 649 l 1
 74 649 l 1
 50 672 l 1
 74 696 l 1
EndSplineSet
Validated: 1
EndChar

StartChar: N
Encoding: 78 78 92
Width: 407
Flags: MW
HStem: 16 21G<83 83 278 278 324 324> 676 20G<83 83 130 130 324 324>
VStem: 60 47<39 669 39 672 39 672> 300 47<43 672 39 672>
LayerCount: 2
Fore
SplineSet
83 696 m 1
 106 673 l 1
 130 696 l 1
 153 672 l 1
 300 43 l 1
 300 672 l 1
 324 696 l 1
 347 672 l 1
 347 39 l 1
 324 16 l 1
 301 39 l 1
 278 16 l 1
 254 39 l 1
 107 669 l 1
 107 39 l 1
 83 16 l 1
 60 39 l 1
 60 672 l 1
 83 696 l 1
EndSplineSet
Validated: 1
EndChar

StartChar: two
Encoding: 50 50 93
Width: 407
Flags: W
HStem: 16 47<116 320 116 320 93 320> 709 47<204 204>
VStem: 62 47<564 588 564 591.5> 69 47<39 74.5>
LayerCount: 2
Fore
SplineSet
198 756 m 0xe0
 200 756 202 756 204 756 c 0
 229 755 251 742 269 725 c 2
 292 701 l 2
 301 692 308 683 315 672 c 0
 343 628 355 574 346 522 c 0
 334 456 276 387 227 328 c 0
 179 270 135 207 122 134 c 0
 117 110 116 86 116 63 c 1
 320 63 l 1
 344 39 l 1
 320 16 l 1
 93 16 l 1
 69 39 l 1xd0
 69 71 69 102 75 134 c 0
 88 207 132 270 180 328 c 0
 229 387 286 456 299 522 c 0
 308 574 296 628 268 672 c 0
 264 678 261 683 256 688 c 0
 241 700 223 708 204 709 c 0
 181 710 162 703 146 691 c 1
 122 659 109 612 109 564 c 1
 85 540 l 1
 62 564 l 1
 62 619 78 673 110 704 c 2
 133 728 l 2
 151 745 173 756 198 756 c 0xe0
EndSplineSet
Validated: 33
EndChar

StartChar: d
Encoding: 100 100 94
Width: 407
Flags: W
HStem: 11 47<192.5 215 192.5 217.5> 16 21G<333 333> 487 47<192.5 215> 731 20G<333 333>
VStem: 50 47 310 47<39 79 79 79 243.5 272 272 301 466 728>
LayerCount: 2
Fore
SplineSet
333 751 m 1xbc
 357 728 l 1
 357 272 l 1
 357 39 l 1
 333 16 l 1x7c
 310 39 l 1
 310 79 l 1
 306 74 303 70 299 67 c 2
 275 43 l 2
 256 24 231 11 204 11 c 0
 176 11 151 24 132 43 c 2
 108 67 l 2
 97 78 88 91 80 105 c 0
 53 156 50 215 50 272 c 0
 50 330 53 389 80 440 c 0
 88 454 97 467 108 478 c 2
 132 502 l 2
 151 521 176 534 204 534 c 0
 231 534 256 521 275 502 c 2
 299 478 l 2
 303 474 306 470 310 466 c 1
 310 728 l 1
 333 751 l 1xbc
204 487 m 0
 181 487 161 479 144 465 c 0
 138 457 132 449 128 440 c 0
 100 389 98 330 98 272 c 0
 98 215 100 156 128 105 c 0
 132 96 138 87 144 79 c 0
 161 66 181 58 204 58 c 0xbc
 226 58 246 66 263 79 c 0
 269 87 275 96 280 105 c 0
 307 156 310 215 310 272 c 0
 310 330 307 389 280 440 c 0
 275 449 269 457 263 465 c 0
 246 479 226 487 204 487 c 0
EndSplineSet
Validated: 1
EndChar

StartChar: greater
Encoding: 62 62 95
Width: 407
Flags: MW
HStem: 16 21G<74 74> 676 20G<74 74>
VStem: 50 306
LayerCount: 2
Fore
SplineSet
74 696 m 1
 98 672 l 1
 357 356 l 1
 98 39 l 1
 74 16 l 1
 50 39 l 1
 310 356 l 1
 50 672 l 1
 74 696 l 1
EndSplineSet
Validated: 1
EndChar

StartChar: m
Encoding: 109 109 96
Width: 407
Flags: MW
HStem: 16 21G<74 74 204 204 333 333> 487 47<140.5 146.5 270.5 276.5>
VStem: 50 47 180 47<39 328 39 356 39 374> 310 47<39 356 39 374>
LayerCount: 2
Fore
SplineSet
144 534 m 0
 155 534 164 529 171 522 c 2
 194 499 l 2
 199 494 204 487 207 480 c 1
 210 486 214 492 219 496 c 2
 243 520 l 2
 251 528 261 534 274 534 c 0
 284 534 293 529 300 522 c 2
 324 499 l 2
 333 490 339 477 343 465 c 0
 354 430 357 392 357 356 c 2
 357 39 l 1
 333 16 l 1
 310 39 l 1
 310 356 l 2
 310 392 307 430 296 465 c 0
 294 471 291 478 288 484 c 0
 283 486 279 487 274 487 c 0
 267 487 261 485 255 482 c 0
 250 474 246 465 243 456 c 0
 230 415 227 371 227 328 c 2
 227 39 l 1
 204 16 l 1
 180 39 l 1
 180 328 l 1
 180 356 l 2
 180 392 178 430 166 465 c 0
 164 471 161 478 158 484 c 0
 154 486 149 487 144 487 c 0
 137 487 131 485 126 482 c 0
 121 474 117 465 114 456 c 0
 100 415 98 371 98 328 c 2
 98 39 l 1
 74 16 l 1
 50 39 l 1
 50 506 l 1
 74 529 l 1
 98 506 l 1
 98 505 l 1
 113 520 l 2
 121 528 132 534 144 534 c 0
EndSplineSet
Validated: 1
EndChar

StartChar: colon
Encoding: 58 58 97
Width: 407
Flags: MW
HStem: 16 47<185 223 185 246 161 223> 124 47<185 185 185 223> 314 47<185 223 185 246 161 223> 408 47
VStem: 137 47 223 47<63 124 124 124 361 408 408 408>
LayerCount: 2
Fore
SplineSet
161 456 m 1
 246 456 l 1
 270 432 l 1
 270 338 l 1
 246 314 l 1
 161 314 l 1
 137 338 l 1
 137 432 l 1
 161 456 l 1
185 408 m 1
 185 361 l 1
 223 361 l 1
 223 408 l 1
 185 408 l 1
161 171 m 1
 246 171 l 1
 270 147 l 1
 270 39 l 1
 246 16 l 1
 161 16 l 1
 137 39 l 1
 137 147 l 1
 161 171 l 1
185 124 m 1
 185 63 l 1
 223 63 l 1
 223 124 l 1
 185 124 l 1
EndSplineSet
Validated: 1
EndChar

StartChar: Ograve
Encoding: 210 210 112
Width: 407
Flags: HW
LayerCount: 2
Fore
SplineSet
204 700 m 0
 229 700 248 692 261 679 c 2
 285 655 l 2
 330 610 323 504 341 420 c 0
 346 398 355 378 355 356 c 0
 355 334 346 313 341 291 c 0
 323 208 330 101 285 56 c 2
 261 32 l 2
 248 19 229 11 204 11 c 0
 178 11 160 19 146 32 c 2
 122 56 l 2
 77 101 85 208 66 291 c 0
 61 313 52 334 52 356 c 0
 52 378 61 398 66 420 c 0
 85 504 77 610 122 655 c 2
 146 679 l 2
 160 692 178 700 204 700 c 0
249 642 m 1
 237 649 222 653 204 653 c 0
 185 653 171 649 159 642 c 1
 126 591 130 496 113 420 c 0
 108 398 99 378 99 356 c 0
 99 334 108 313 113 291 c 0
 130 215 126 120 159 69 c 1
 171 62 185 58 204 58 c 0
 222 58 237 62 249 69 c 1
 282 120 277 215 294 291 c 0
 299 313 308 334 308 356 c 0
 308 378 299 398 294 420 c 0
 277 496 282 591 249 642 c 1
EndSplineSet
Validated: 1
EndChar

StartChar: Oacute
Encoding: 211 211 113
Width: 407
Flags: HW
LayerCount: 2
Fore
SplineSet
204 700 m 0
 237 700 269 689 294 667 c 2
 298 663 l 1
 322 639 l 2
 392 569 355 456 355 356 c 0
 355 255 392 142 322 72 c 2
 298 48 l 2
 297 47 295 46 294 44 c 0
 269 22 237 11 204 11 c 0
 170 11 138 22 113 44 c 0
 112 46 110 47 109 48 c 2
 85 72 l 2
 15 142 52 255 52 356 c 0
 52 456 15 569 85 639 c 2
 109 663 l 1
 113 667 l 2
 138 689 170 700 204 700 c 0
204 653 m 0
 174 653 145 645 121 627 c 1
 66 556 99 450 99 356 c 0
 99 261 66 155 121 85 c 1
 145 67 174 58 204 58 c 0
 233 58 262 67 286 85 c 1
 341 155 308 261 308 356 c 0
 308 450 341 556 286 627 c 1
 262 645 233 653 204 653 c 0
EndSplineSet
Validated: 33
EndChar

StartChar: Ugrave
Encoding: 217 217 117
Width: 407
Flags: HW
LayerCount: 2
Fore
SplineSet
74 696 m 1
 204 696 l 2
 229 696 254 688 272 670 c 2
 295 647 l 2
 298 644 300 642 302 639 c 0
 327 607 320 563 320 523 c 0
 320 482 327 439 302 406 c 0
 300 404 298 401 295 399 c 2
 279 382 l 1
 288 378 296 372 304 365 c 2
 327 341 l 2
 329 340 331 338 332 336 c 0
 362 301 357 252 357 206 c 0
 357 160 362 111 332 76 c 0
 331 74 329 73 327 71 c 2
 304 48 l 2
 278 22 240 16 204 16 c 2
 74 16 l 1
 50 39 l 1
 50 373 l 1
 50 672 l 1
 74 696 l 1
98 649 m 1
 98 397 l 1
 204 397 l 2
 223 397 243 401 259 412 c 1
 279 443 273 484 273 523 c 0
 273 561 279 602 259 634 c 1
 243 644 223 649 204 649 c 2
 98 649 l 1
98 350 m 1
 98 63 l 1
 204 63 l 2
 235 63 266 67 291 84 c 1
 314 118 310 164 310 206 c 0
 310 249 314 294 291 328 c 1
 266 345 235 350 204 350 c 2
 98 350 l 1
EndSplineSet
Validated: 33
EndChar

StartChar: Uacute
Encoding: 218 218 118
Width: 407
Flags: HW
LayerCount: 2
Fore
SplineSet
242 697 m 0
 260 697 278 694 291 682 c 2
 293 680 l 1
 317 656 l 2
 350 623 320 570 320 523 c 0
 320 476 350 423 317 389 c 1
 320 387 323 384 326 381 c 1
 326 381 l 1
 350 357 l 2
 389 319 357 259 357 206 c 0
 357 153 389 94 350 55 c 2
 326 31 l 1
 326 31 l 1
 295 0 247 16 204 16 c 2
 74 16 l 1
 50 39 l 1
 50 373 l 1
 50 672 l 1
 74 696 l 1
 204 696 l 2
 216 696 229 697 242 697 c 0
242 650 m 0
 229 650 216 649 204 649 c 2
 98 649 l 1
 98 397 l 1
 204 397 l 2
 227 397 252 401 274 400 c 0
 276 401 278 402 279 403 c 0
 296 436 273 482 273 523 c 0
 273 564 296 609 279 643 c 1
 268 648 255 650 242 650 c 0
274 353 m 1
 253 345 228 350 204 350 c 2
 98 350 l 1
 98 63 l 1
 204 63 l 2
 241 63 283 51 313 68 c 1
 335 107 310 159 310 206 c 0
 310 253 335 306 313 344 c 1
 302 350 288 353 274 353 c 1
EndSplineSet
Validated: 37
EndChar

StartChar: Ucircumflex
Encoding: 219 219 119
Width: 407
Flags: HW
LayerCount: 2
Fore
SplineSet
100 696 m 1
 185 696 l 2
 219 696 254 688 277 665 c 2
 301 642 l 2
 303 640 304 638 306 636 c 0
 335 601 329 553 329 509 c 0
 329 464 335 416 306 381 c 1
 301 376 l 1
 277 352 l 2
 265 340 250 332 234 328 c 1
 342 39 l 1
 318 16 l 1
 295 39 l 1
 189 322 l 1
 185 322 l 1
 124 322 l 1
 124 39 l 1
 100 16 l 1
 76 39 l 1
 76 672 l 1
 100 696 l 1
124 649 m 1
 124 369 l 1
 185 369 l 2
 213 369 242 374 264 389 c 1
 287 422 282 467 282 509 c 0
 282 550 287 595 264 629 c 1
 242 644 213 649 185 649 c 2
 124 649 l 1
EndSplineSet
Validated: 33
EndChar

